<svg version="1.1" id="Layer_1" xmlns="http://www.w3.org/2000/svg" x="0px" y="0px" viewBox="0 0 3440 2400" enable-background="new 0 0 3440 2400" xml:space="preserve">
<path fill="#D3D3D3" opacity="1.000000" stroke="none" 
	d="
M2936.530518,1098.532959 
	C2918.299072,1131.079956 2900.439453,1162.991821 2882.574707,1194.901123 
	C2881.924072,1196.063477 2881.300537,1197.252930 2880.529541,1198.333862 
	C2877.420898,1202.693726 2878.872803,1205.383545 2883.376465,1207.577515 
	C2887.849854,1209.756714 2892.069092,1212.457520 2896.402100,1214.925171 
	C2979.320068,1262.146118 3062.235840,1309.370728 3145.160156,1356.580078 
	C3154.403809,1361.842529 3163.645508,1367.112915 3172.994141,1372.184326 
	C3176.998291,1374.356567 3178.073975,1376.291138 3175.220703,1380.644287 
	C3170.309570,1388.136353 3166.269043,1396.196655 3161.801270,1403.982910 
	C3157.745850,1411.050415 3157.669922,1411.099121 3150.702637,1407.141235 
	C3118.323975,1388.748657 3085.972168,1370.309082 3053.605225,1351.896240 
	C2991.186768,1316.387695 2928.763428,1280.888062 2866.348389,1245.373413 
	C2863.470215,1243.735596 2860.834229,1241.594727 2856.682129,1241.163086 
	C2844.961914,1262.062744 2833.131104,1283.160156 2821.373535,1304.126709 
	C2823.328125,1307.617188 2826.320312,1306.236694 2828.693604,1306.250610 
	C2849.357910,1306.372437 2870.023193,1306.294556 2890.688232,1306.333740 
	C2899.561279,1306.350464 2899.623047,1306.411865 2899.663818,1314.816284 
	C2899.721924,1326.814941 2899.735840,1338.814697 2899.657227,1350.813232 
	C2899.608887,1358.185181 2899.516113,1358.309082 2891.804443,1358.319824 
	C2856.807129,1358.368652 2821.809814,1358.340942 2786.812500,1358.342407 
	C2784.479248,1358.342529 2782.143799,1358.423828 2779.813477,1358.344360 
	C2776.800293,1358.241699 2775.648193,1359.759766 2775.697266,1362.607056 
	C2775.748779,1365.605591 2775.680420,1368.606201 2775.680420,1371.605835 
	C2775.678955,1590.922241 2775.694580,1810.238770 2775.644043,2029.555176 
	C2775.640625,2044.000977 2777.934082,2042.314941 2763.063232,2042.316772 
	C2497.750244,2042.350830 2232.437256,2042.331421 1967.124390,2042.368408 
	C1952.439819,2042.370361 1954.385376,2040.506836 1954.377319,2055.047852 
	C1954.322388,2153.707031 1954.370728,2252.365967 1954.321289,2351.025146 
	C1954.314819,2363.989258 1956.004150,2362.205811 1943.425049,2362.321045 
	C1932.760132,2362.418701 1922.090820,2362.199707 1911.429077,2362.409180 
	C1907.289429,2362.490234 1905.133423,2361.403320 1905.613037,2356.872559 
	C1905.857422,2354.565430 1905.651733,2352.210938 1905.651733,2349.877686 
	C1905.651489,2251.885254 1905.651611,2153.892822 1905.651489,2055.900391 
	C1905.651489,2053.567139 1905.418701,2051.206299 1905.695435,2048.906494 
	C1906.355591,2043.420410 1903.689941,2041.802124 1898.724365,2042.310669 
	C1896.745361,2042.513428 1894.728149,2042.341675 1892.728271,2042.341675 
	C1680.744629,2042.341553 1468.760864,2042.341675 1256.777222,2042.341675 
	C1255.110718,2042.341675 1253.404663,2042.574341 1251.784790,2042.299561 
	C1246.164917,2041.346436 1243.703369,2043.983643 1241.561035,2049.078613 
	C1214.517090,2113.395752 1187.217896,2177.605469 1159.980713,2241.841309 
	C1153.766602,2256.496582 1147.540771,2271.146973 1141.068481,2286.392822 
	C1128.731079,2281.236328 1116.888550,2276.166992 1104.942017,2271.355469 
	C1100.483765,2269.559814 1101.178101,2266.749023 1102.593750,2263.457275 
	C1106.794678,2253.689453 1111.006348,2243.926514 1115.173706,2234.144531 
	C1126.633545,2207.244629 1137.914185,2180.266602 1149.644287,2153.485352 
	C1152.222534,2147.598877 1151.700806,2143.332764 1148.066772,2138.019775 
	C1127.770142,2108.345703 1107.756226,2078.474609 1087.977539,2048.452393 
	C1084.788574,2043.611938 1081.292114,2042.233643 1075.788086,2042.237793 
	C908.134460,2042.365112 740.480713,2042.341553 572.826965,2042.342407 
	C571.160461,2042.342407 569.491333,2042.416626 567.827942,2042.347656 
	C564.827332,2042.223511 563.643250,2043.735718 563.698181,2046.592529 
	C563.749390,2049.257568 563.680237,2051.925049 563.680115,2054.591309 
	C563.678345,2114.919922 563.700928,2175.248779 563.659119,2235.577393 
	C563.651184,2247.047852 565.319031,2246.307373 553.040771,2246.338135 
	C545.708069,2246.356445 538.374573,2246.398682 531.042603,2246.324463 
	C523.771729,2246.250732 523.764038,2246.192627 523.656799,2238.492188 
	C523.624268,2236.159424 523.651367,2233.825928 523.651367,2231.492676 
	C523.651367,2081.837402 523.663330,1932.182373 523.631470,1782.527222 
	C523.628540,1768.743530 525.243591,1770.381592 511.355011,1770.363037 
	C467.691803,1770.304565 424.028412,1770.347168 380.365112,1770.336914 
	C371.050323,1770.334839 371.655975,1771.166626 371.652435,1761.815063 
	C371.648865,1752.482422 371.582367,1743.149170 371.674255,1733.817505 
	C371.746765,1726.449829 371.834747,1726.347290 379.559601,1726.339111 
	C416.556702,1726.299805 453.553864,1726.321655 490.551025,1726.320923 
	C499.550323,1726.320801 508.556885,1726.102173 517.546082,1726.403076 
	C522.428345,1726.566528 524.239502,1724.751099 523.687378,1720.018433 
	C523.457214,1718.045532 523.651245,1716.023315 523.651245,1714.023438 
	C523.651428,1466.375732 523.662231,1218.728149 523.623962,971.080505 
	C523.621765,956.497314 525.548828,958.398499 510.908264,958.370361 
	C468.578339,958.288818 426.248169,958.356812 383.918091,958.328125 
	C375.767853,958.322571 375.711243,958.243469 375.666016,950.367798 
	C375.608582,940.368896 375.865936,930.363037 375.566498,920.372864 
	C375.418030,915.420837 377.352783,913.786255 382.011353,914.280945 
	C384.318420,914.525940 386.673126,914.321411 389.006287,914.321411 
	C520.996155,914.321289 652.985962,914.321289 784.975830,914.321289 
	C786.642395,914.321289 788.308899,914.316467 789.975464,914.322083 
	C801.009399,914.359436 799.641541,914.493103 799.642456,904.596924 
	C799.655334,761.274597 799.636108,617.952332 799.674866,474.630005 
	C799.678711,460.256683 798.073853,462.360504 811.746033,462.353638 
	C925.403992,462.296692 1039.062012,462.240875 1152.719482,462.493896 
	C1160.690308,462.511627 1164.714600,460.228668 1168.610596,452.914856 
	C1200.499268,393.051483 1232.996460,333.512207 1265.327026,273.884430 
	C1277.212524,251.964050 1289.134277,230.063400 1301.066284,208.168350 
	C1305.310547,200.380081 1305.390747,200.318634 1297.708252,196.146133 
	C1290.986816,192.495605 1284.196289,188.964523 1277.348267,185.557816 
	C1273.586060,183.686188 1272.728516,181.429520 1274.872925,177.637543 
	C1280.601074,167.508896 1286.383423,157.391937 1291.568481,146.983490 
	C1293.885498,142.332321 1296.171997,142.573257 1300.000000,144.671890 
	C1325.947388,158.897125 1351.922485,173.072845 1377.963379,187.126389 
	C1422.438477,211.128479 1466.991699,234.985870 1511.468750,258.984558 
	C1555.650513,282.823822 1599.755615,306.804962 1643.936890,330.644867 
	C1683.439575,351.960144 1723.029419,373.113831 1762.527954,394.436584 
	C1811.094971,420.654785 1859.582642,447.019714 1908.150146,473.236877 
	C1952.622803,497.243683 1997.180298,521.093140 2041.656006,545.094360 
	C2089.933594,571.147278 2138.154297,597.305847 2186.417480,623.385498 
	C2191.075684,625.902649 2195.859131,628.188293 2201.345703,630.966919 
	C2226.617188,585.526611 2251.776855,540.287231 2277.295898,494.401855 
	C2290.687988,501.820648 2303.724854,509.042664 2317.760742,516.818176 
	C2292.529541,562.322021 2267.499512,607.463074 2242.088623,653.290710 
	C2471.261475,776.961853 2699.718750,900.246887 2928.723633,1023.827454 
	C2938.128418,1007.135010 2947.116943,991.258118 2956.031738,975.339905 
	C2967.404541,955.032471 2978.712646,934.688721 2990.064453,914.369507 
	C2991.199219,912.338135 2992.620117,910.450073 2993.595215,908.350220 
	C2994.963867,905.403442 2996.907959,905.528625 2999.266357,906.863098 
	C3009.394775,912.594360 3019.492920,918.379761 3029.660156,924.041260 
	C3032.956787,925.876892 3032.303223,927.970093 3030.793213,930.624023 
	C3024.215332,942.183350 3017.751221,953.807434 3011.240967,965.405273 
	C2997.572021,989.756165 2983.889648,1014.099365 2970.236572,1038.459229 
	C2966.862061,1044.479614 2966.920654,1044.473511 2973.357178,1047.944580 
	C3028.665771,1077.771118 3083.967529,1107.611206 3139.274170,1137.441772 
	C3147.207520,1141.720825 3147.219971,1141.710205 3143.161377,1149.239746 
	C3138.270264,1158.313721 3133.374512,1167.385254 3128.469482,1176.451782 
	C3126.346436,1180.376221 3124.166504,1182.318848 3119.157959,1179.566406 
	C3085.065918,1160.831177 3050.793701,1142.424561 3016.592041,1123.889160 
	C2994.669434,1112.008545 2972.779541,1100.067749 2950.849854,1088.199951 
	C2944.601074,1084.818359 2944.284912,1084.950806 2940.787109,1090.908447 
	C2939.437744,1093.206299 2938.193604,1095.566040 2936.530518,1098.532959 
z"/>
<path fill="#FFFFFF" opacity="1.000000" stroke="none" 
	d="
M1014.000122,494.338440 
	C1057.917358,494.338440 1100.834595,494.338440 1143.386230,494.338440 
	C1145.381836,497.627747 1143.126587,499.316193 1142.105225,501.218811 
	C1123.395264,536.070129 1104.689453,570.924194 1085.815430,605.686707 
	C1083.989014,609.050537 1083.456909,612.142212 1083.495239,615.962646 
	C1083.766846,642.950562 1083.652832,669.942505 1083.653931,696.933105 
	C1083.656494,764.909546 1083.654785,832.886047 1083.654785,900.862488 
	C1083.654785,902.528564 1083.670898,904.194824 1083.651733,905.860657 
	C1083.555054,914.235657 1083.551758,914.306946 1074.721191,914.312317 
	C1031.402832,914.338989 988.084534,914.324524 944.766174,914.324524 
	C912.444031,914.324524 880.121887,914.345154 847.799744,914.309570 
	C839.783691,914.300781 839.690796,914.216858 839.689636,906.212708 
	C839.670166,771.925903 839.675476,637.639038 839.677185,503.352234 
	C839.677246,501.686310 839.729370,500.020020 839.708923,498.354492 
	C839.672424,495.385925 841.220947,494.238647 844.058777,494.337921 
	C846.388245,494.419464 848.723145,494.339203 851.055664,494.339172 
	C905.037170,494.338226 959.018616,494.338440 1014.000122,494.338440 
z"/>
<path fill="#FFFFFF" opacity="1.000000" stroke="none" 
	d="
M1132.237671,615.009277 
	C1160.148193,563.434753 1187.773926,512.625732 1215.305908,461.766022 
	C1242.363403,411.783051 1269.302734,361.736053 1296.338379,311.741119 
	C1312.456055,281.935913 1328.659546,252.177109 1345.085938,221.915939 
	C1363.484863,231.810135 1381.594360,241.526642 1399.683472,251.280838 
	C1435.960205,270.842285 1472.201294,290.469513 1508.509888,309.971405 
	C1520.022217,316.154846 1518.563721,314.825623 1513.016113,325.165070 
	C1491.959351,364.410095 1470.671631,403.531219 1449.463379,442.694946 
	C1428.886963,480.691742 1408.298218,518.681824 1387.722290,556.678894 
	C1377.435059,575.675903 1366.847778,594.520874 1357.060791,613.772522 
	C1353.707642,620.368347 1349.714600,622.513306 1342.447998,622.484375 
	C1274.810791,622.214966 1207.171875,622.324951 1139.533569,622.324707 
	C1137.867554,622.324707 1136.198853,622.384460 1134.536133,622.309021 
	C1129.316528,622.072388 1129.317383,622.052490 1132.237671,615.009277 
z"/>
<path fill="#FFFFFF" opacity="1.000000" stroke="none" 
	d="
M1955.674438,753.999817 
	C1955.674561,728.009766 1955.636108,703.019653 1955.698120,678.029846 
	C1955.716797,670.485229 1955.844238,670.360779 1963.377197,670.357117 
	C2032.349487,670.323975 2101.321777,670.334900 2170.294189,670.346619 
	C2173.265381,670.347107 2176.131104,670.364624 2179.037354,671.718384 
	C2184.930176,674.463501 2187.898682,677.868103 2187.864258,685.236877 
	C2187.520996,758.539246 2187.656006,831.843811 2187.655273,905.147766 
	C2187.655029,906.813721 2187.581543,908.482239 2187.649658,910.145142 
	C2187.771240,913.119507 2186.307617,914.368713 2183.434814,914.302856 
	C2181.437012,914.256958 2179.436768,914.324158 2177.437744,914.324219 
	C2106.799316,914.325928 2036.161011,914.325684 1965.522705,914.325562 
	C1964.189941,914.325562 1962.845825,914.211548 1961.526367,914.343323 
	C1957.494873,914.746155 1955.148438,913.545654 1955.636841,908.933594 
	C1955.881226,906.627258 1955.674561,904.273315 1955.674561,901.940918 
	C1955.674316,852.960571 1955.674438,803.980225 1955.674438,753.999817 
z"/>
<path fill="#FFFFFF" opacity="1.000000" stroke="none" 
	d="
M1635.659302,820.270020 
	C1635.659180,849.551392 1635.684204,877.864197 1635.642944,906.176880 
	C1635.631226,914.204651 1635.542358,914.309448 1627.417847,914.312439 
	C1552.805420,914.340210 1478.192993,914.339050 1403.580566,914.313354 
	C1395.827393,914.310730 1395.704590,914.211731 1395.692993,907.005981 
	C1395.643066,876.028625 1395.639648,845.051025 1395.694336,814.073669 
	C1395.707642,806.486511 1395.837769,806.357544 1403.323120,806.354248 
	C1477.935547,806.321350 1552.547974,806.323608 1627.160400,806.349426 
	C1635.451660,806.352356 1635.458984,806.448853 1635.652954,814.305176 
	C1635.693970,815.969666 1635.659180,817.635986 1635.659302,820.270020 
z"/>
<path fill="#FFFFFF" opacity="1.000000" stroke="none" 
	d="
M1820.000244,514.334473 
	C1837.996948,514.334473 1855.003906,514.688599 1871.986450,514.199341 
	C1881.907104,513.913574 1890.668335,515.698914 1899.473511,520.725220 
	C1915.373535,529.801331 1915.658691,529.301697 1915.658569,547.698608 
	C1915.658447,570.027588 1915.696289,592.356750 1915.636963,614.685547 
	C1915.617065,622.162720 1915.504028,622.302551 1907.899902,622.306152 
	C1832.914551,622.342041 1757.929077,622.340515 1682.943726,622.306946 
	C1675.850952,622.303772 1675.709595,622.169006 1675.697266,615.360413 
	C1675.641602,584.366577 1675.643921,553.372498 1675.691528,522.378601 
	C1675.703735,514.441711 1675.814819,514.354736 1684.026367,514.349182 
	C1729.017578,514.318726 1774.008911,514.334534 1820.000244,514.334473 
z"/>
<path fill="#FFFFFF" opacity="1.000000" stroke="none" 
	d="
M1069.725830,1358.333252 
	C1085.476074,1358.539551 1083.585449,1356.495483 1083.634277,1370.827637 
	C1083.723877,1397.141724 1083.682495,1423.456421 1083.646118,1449.770874 
	C1083.634521,1458.168213 1083.562866,1458.304443 1075.824585,1458.307983 
	C999.545959,1458.342896 923.267395,1458.341431 846.988770,1458.308350 
	C839.787720,1458.305298 839.698425,1458.172729 839.686829,1450.414917 
	C839.645569,1422.768066 839.691895,1395.121338 839.659424,1367.474487 
	C839.647278,1357.125977 839.730164,1358.337891 848.919495,1358.337036 
	C922.200256,1358.330322 995.480957,1358.333252 1069.725830,1358.333252 
z"/>
<path fill="#FFFFFF" opacity="1.000000" stroke="none" 
	d="
M949.999817,2002.329468 
	C915.360779,2002.329346 881.721802,2002.329102 848.082825,2002.329224 
	C839.633362,2002.329346 839.651306,2003.177246 839.660034,1994.511230 
	C839.688660,1966.201172 839.633362,1937.891113 839.697754,1909.581177 
	C839.713806,1902.515503 839.864746,1902.361450 846.814209,1902.358154 
	C923.417786,1902.320679 1000.021423,1902.317505 1076.625000,1902.365112 
	C1083.469971,1902.369385 1083.617188,1902.564331 1083.633301,1909.769043 
	C1083.696655,1938.078979 1083.690796,1966.389038 1083.637817,1994.699097 
	C1083.623901,2002.164307 1083.504272,2002.298218 1075.897095,2002.306885 
	C1034.264648,2002.353760 992.632263,2002.329224 949.999817,2002.329468 
z"/>
<path fill="#FFFFFF" opacity="1.000000" stroke="none" 
	d="
M1059.947266,1086.333252 
	C1066.598511,1086.335327 1072.268555,1086.522583 1077.920288,1086.279175 
	C1082.241699,1086.093140 1083.828979,1087.743896 1083.722534,1092.071411 
	C1083.501587,1101.058838 1083.659180,1110.055420 1083.659424,1119.048340 
	C1083.660156,1138.033325 1083.698608,1157.018433 1083.644531,1176.003296 
	C1083.613770,1186.760010 1085.166382,1186.330078 1073.596436,1186.329834 
	C1019.306030,1186.329102 965.015686,1186.329468 910.725281,1186.329346 
	C889.408813,1186.329224 868.092163,1186.369629 846.775879,1186.304810 
	C839.840027,1186.283813 839.708313,1186.158325 839.694641,1179.202271 
	C839.638855,1150.891479 839.638794,1122.580322 839.691895,1094.269409 
	C839.706604,1086.435303 839.823425,1086.349854 848.124878,1086.347046 
	C918.402649,1086.323364 988.680359,1086.333374 1059.947266,1086.333252 
z"/>
<path fill="#FFFFFF" opacity="1.000000" stroke="none" 
	d="
M2405.994873,811.676880 
	C2410.990479,811.676880 2415.073730,812.210815 2418.968994,811.582092 
	C2433.820068,809.185303 2446.163574,815.316101 2458.376221,822.357971 
	C2462.178223,824.550171 2463.848145,827.126221 2463.792236,831.851257 
	C2463.497559,856.828369 2463.689209,881.810791 2463.630615,906.791260 
	C2463.613281,914.165649 2463.490967,914.298340 2455.793701,914.301819 
	C2380.852051,914.336060 2305.910156,914.335205 2230.968506,914.301636 
	C2223.792725,914.298401 2223.704346,914.164551 2223.693359,906.384766 
	C2223.653076,878.073486 2223.648193,849.762085 2223.691895,821.450806 
	C2223.708496,810.620972 2222.534668,811.695312 2233.129883,811.690186 
	C2290.418701,811.662292 2347.707275,811.676880 2405.994873,811.676880 
z"/>
<path fill="#FFFFFF" opacity="1.000000" stroke="none" 
	d="
M2439.947510,1902.333252 
	C2446.598633,1902.335327 2452.268799,1902.522705 2457.920166,1902.279053 
	C2462.242188,1902.092896 2463.828613,1903.744141 2463.722168,1908.071045 
	C2463.501709,1917.058472 2463.659668,1926.055176 2463.659912,1935.047974 
	C2463.660645,1954.032715 2463.698730,1973.017700 2463.645020,1992.002319 
	C2463.614502,2002.760864 2465.163818,2002.330078 2453.597656,2002.329956 
	C2397.975342,2002.329102 2342.353271,2002.329346 2286.730957,2002.329224 
	C2268.079346,2002.329224 2249.427246,2002.373779 2230.775879,2002.304932 
	C2223.839844,2002.279297 2223.708740,2002.158325 2223.695068,1995.202271 
	C2223.639404,1966.891724 2223.639160,1938.580933 2223.692139,1910.270264 
	C2223.706787,1902.435425 2223.823242,1902.349976 2232.123779,1902.347046 
	C2301.068604,1902.323242 2370.013672,1902.333374 2439.947510,1902.333252 
z"/>
<path fill="#FFFFFF" opacity="1.000000" stroke="none" 
	d="
M1572.000244,670.333313 
	C1591.651367,670.334290 1610.304565,670.490295 1628.952271,670.236938 
	C1634.197021,670.165710 1635.787598,671.930908 1635.752441,677.098877 
	C1635.556030,706.073486 1635.568970,735.050537 1635.746582,764.025330 
	C1635.775391,768.732849 1634.446289,770.918823 1629.564453,770.355286 
	C1627.921265,770.165588 1626.237427,770.329407 1624.572144,770.329407 
	C1551.965942,770.329590 1479.359741,770.329773 1406.753540,770.328674 
	C1404.422119,770.328674 1402.087646,770.236145 1399.760132,770.328003 
	C1396.803711,770.444641 1395.556519,769.090759 1395.671143,766.180359 
	C1395.762817,763.852905 1395.671387,761.518494 1395.671265,759.187134 
	C1395.670044,733.541809 1395.630249,707.896423 1395.686768,682.251221 
	C1395.717163,668.513550 1394.399048,670.373840 1407.136597,670.359558 
	C1461.757812,670.298157 1516.378906,670.333374 1572.000244,670.333313 
z"/>
<path fill="#FFFFFF" opacity="1.000000" stroke="none" 
	d="
M1866.000244,670.333313 
	C1880.988647,670.334290 1894.980957,670.529785 1908.963257,670.236206 
	C1914.228271,670.125732 1915.786255,671.958618 1915.751709,677.110535 
	C1915.557251,706.085144 1915.567749,735.062195 1915.747437,764.036987 
	C1915.776733,768.760864 1914.418945,770.914246 1909.552856,770.355164 
	C1907.909424,770.166321 1906.225708,770.329285 1904.560425,770.329346 
	C1831.954224,770.329590 1759.348022,770.329773 1686.741821,770.328674 
	C1684.410522,770.328674 1682.075928,770.236023 1679.748535,770.327820 
	C1676.782959,770.444763 1675.556885,769.070312 1675.671021,766.168762 
	C1675.762573,763.841309 1675.671509,761.506836 1675.671387,759.175476 
	C1675.670044,733.530151 1675.630493,707.884827 1675.686646,682.239624 
	C1675.716797,668.509644 1674.404175,670.372253 1687.148193,670.359497 
	C1746.432129,670.300415 1805.716187,670.333313 1866.000244,670.333313 
z"/>
<path fill="#FFFFFF" opacity="1.000000" stroke="none" 
	d="
M1725.999756,1458.329468 
	C1711.011353,1458.329224 1697.022827,1458.377563 1683.034790,1458.308594 
	C1675.854248,1458.273193 1675.710815,1458.178589 1675.696899,1451.461792 
	C1675.637939,1422.819092 1675.633423,1394.176025 1675.698730,1365.533447 
	C1675.714722,1358.513428 1675.870361,1358.361328 1682.862061,1358.357788 
	C1757.799683,1358.319946 1832.737183,1358.320435 1907.674805,1358.354492 
	C1915.545044,1358.358032 1915.631348,1358.489502 1915.643921,1366.817017 
	C1915.685547,1394.460693 1915.681885,1422.104248 1915.646362,1449.747925 
	C1915.635498,1458.233032 1915.563354,1458.312988 1906.850098,1458.316650 
	C1846.900024,1458.341187 1786.949951,1458.329468 1725.999756,1458.329468 
z"/>
<path fill="#FFFFFF" opacity="1.000000" stroke="none" 
	d="
M1794.000244,1086.333252 
	C1832.302490,1086.333374 1869.604736,1086.314819 1906.906982,1086.347534 
	C1915.558838,1086.355225 1915.634033,1086.435791 1915.645874,1095.048462 
	C1915.683472,1122.359009 1915.665283,1149.669678 1915.656738,1176.980225 
	C1915.653564,1186.840332 1916.649658,1186.331543 1905.619507,1186.330811 
	C1852.663574,1186.327759 1799.707764,1186.329590 1746.751831,1186.329346 
	C1725.436279,1186.329346 1704.120605,1186.369385 1682.805298,1186.305420 
	C1675.842041,1186.284424 1675.708374,1186.160400 1675.694946,1179.232178 
	C1675.639160,1150.589478 1675.629272,1121.946533 1675.702515,1093.303955 
	C1675.719849,1086.500854 1675.897827,1086.366333 1683.091675,1086.356689 
	C1719.727783,1086.307129 1756.364014,1086.333496 1794.000244,1086.333252 
z"/>
<path fill="#FFFFFF" opacity="1.000000" stroke="none" 
	d="
M2463.660156,1145.999268 
	C2463.659424,1157.989868 2463.475342,1168.985229 2463.744141,1179.969482 
	C2463.857666,1184.612183 2462.570801,1186.936401 2457.618652,1186.355225 
	C2455.976318,1186.162476 2454.291748,1186.329224 2452.626465,1186.329224 
	C2379.687012,1186.329590 2306.747803,1186.329712 2233.808350,1186.328735 
	C2231.810059,1186.328613 2229.808350,1186.240234 2227.814209,1186.327148 
	C2224.900635,1186.453979 2223.510986,1185.185791 2223.681641,1182.234619 
	C2223.739258,1181.239258 2223.672852,1180.237061 2223.672852,1179.237915 
	C2223.671631,1150.928101 2223.639893,1122.618286 2223.691650,1094.308472 
	C2223.706055,1086.437500 2223.819824,1086.349731 2232.085205,1086.347046 
	C2306.356689,1086.323730 2380.628418,1086.323608 2454.899902,1086.347046 
	C2463.558350,1086.349854 2463.622314,1086.435303 2463.646484,1095.041016 
	C2463.693115,1111.693726 2463.660156,1128.346680 2463.660156,1145.999268 
z"/>
<path fill="#FFFFFF" opacity="1.000000" stroke="none" 
	d="
M563.670410,1167.953613 
	C563.670593,1142.644165 563.631409,1118.330933 563.694458,1094.017944 
	C563.713989,1086.481079 563.841187,1086.356323 571.376465,1086.353027 
	C644.648865,1086.320923 717.921204,1086.322632 791.193604,1086.349609 
	C799.508057,1086.352661 799.623962,1086.452148 799.638611,1094.335815 
	C799.691406,1122.645630 799.693909,1150.955444 799.633057,1179.265137 
	C799.618347,1186.140747 799.473694,1186.300293 792.330444,1186.304077 
	C718.391968,1186.343994 644.453430,1186.294067 570.515137,1186.406250 
	C565.678284,1186.413696 562.930969,1185.571045 563.593018,1179.931641 
	C564.017273,1176.317871 563.671204,1172.613647 563.670410,1167.953613 
z"/>
<path fill="#FFFFFF" opacity="1.000000" stroke="none" 
	d="
M1196.000244,1358.333252 
	C1246.958130,1358.333252 1296.916016,1358.333252 1346.873901,1358.333496 
	C1349.205200,1358.333496 1351.548950,1358.491089 1353.865234,1358.305908 
	C1358.106201,1357.966919 1359.858032,1359.615234 1359.724365,1364.016357 
	C1359.481812,1372.002197 1359.659180,1380.000732 1359.659424,1387.994019 
	C1359.660156,1407.644165 1359.724365,1427.294434 1359.636230,1446.944214 
	C1359.580933,1459.249268 1361.454346,1458.313477 1348.658081,1458.319458 
	C1296.368774,1458.343506 1244.079590,1458.329468 1191.790283,1458.329346 
	C1171.474121,1458.329224 1151.157715,1458.370361 1130.841797,1458.305542 
	C1123.844238,1458.283325 1123.708984,1458.162842 1123.695435,1451.268799 
	C1123.639038,1422.626465 1123.629883,1393.983643 1123.701904,1365.341431 
	C1123.719116,1358.503052 1123.893433,1358.379395 1131.054077,1358.357422 
	C1152.369263,1358.292236 1173.684692,1358.333618 1196.000244,1358.333252 
z"/>
<path fill="#FFFFFF" opacity="1.000000" stroke="none" 
	d="
M1337.950684,1186.329468 
	C1270.012207,1186.329468 1203.067261,1186.329346 1136.122437,1186.329224 
	C1134.124023,1186.329224 1132.091919,1186.091797 1130.133789,1186.372437 
	C1124.630615,1187.161499 1123.549805,1184.504517 1123.581787,1179.552856 
	C1123.766602,1150.911011 1123.634644,1122.267212 1123.697144,1093.624268 
	C1123.712646,1086.517212 1123.860474,1086.361938 1130.771362,1086.358398 
	C1204.710449,1086.320190 1278.649536,1086.317139 1352.588623,1086.364746 
	C1359.465942,1086.369141 1359.616821,1086.561279 1359.632812,1093.732666 
	C1359.696655,1122.375610 1359.526367,1151.020020 1359.775391,1179.661011 
	C1359.822021,1185.027710 1358.032104,1186.744629 1352.927979,1186.394897 
	C1348.286987,1186.076782 1343.607056,1186.328735 1337.950684,1186.329468 
z"/>
<path fill="#FFFFFF" opacity="1.000000" stroke="none" 
	d="
M799.659668,1388.013916 
	C799.659668,1408.661743 799.699463,1428.312134 799.643799,1447.962280 
	C799.613342,1458.709351 801.202454,1458.331177 789.638428,1458.330688 
	C736.016541,1458.328125 682.394714,1458.329468 628.772827,1458.329346 
	C609.455627,1458.329346 590.138306,1458.372192 570.821289,1458.305542 
	C563.842896,1458.281372 563.708557,1458.161377 563.695007,1451.248169 
	C563.639038,1422.605591 563.629578,1393.962524 563.702332,1365.320068 
	C563.719666,1358.501709 563.896240,1358.359741 571.075317,1358.356201 
	C644.680481,1358.320312 718.285706,1358.319580 791.890869,1358.356079 
	C799.492981,1358.359863 799.552979,1358.500000 799.641907,1366.034180 
	C799.724304,1373.027344 799.659607,1380.022217 799.659668,1388.013916 
z"/>
<path fill="#FFFFFF" opacity="1.000000" stroke="none" 
	d="
M695.999817,2002.329468 
	C654.367310,2002.329468 613.734924,2002.348877 573.102478,2002.316406 
	C562.537048,2002.307983 563.701843,2003.372314 563.684937,1992.533813 
	C563.641724,1964.890381 563.632874,1937.246948 563.697510,1909.603760 
	C563.714050,1902.516357 563.862610,1902.362061 570.791443,1902.358398 
	C644.729126,1902.320312 718.666809,1902.316895 792.604492,1902.364868 
	C799.467773,1902.369385 799.616882,1902.562744 799.633118,1909.748291 
	C799.697205,1938.057617 799.690491,1966.367188 799.638245,1994.676636 
	C799.624390,2002.162598 799.506470,2002.293091 791.919861,2002.306030 
	C760.279968,2002.360352 728.639893,2002.329224 695.999817,2002.329468 
z"/>
<path fill="#FFFFFF" opacity="1.000000" stroke="none" 
	d="
M953.999817,1866.329712 
	C918.361877,1866.329712 883.723938,1866.346680 849.086060,1866.318970 
	C838.959595,1866.310791 839.681396,1867.370850 839.675659,1857.516602 
	C839.660156,1830.872070 839.631165,1804.227417 839.697510,1777.583130 
	C839.715088,1770.515381 839.864258,1770.361328 846.811890,1770.358032 
	C923.414978,1770.320557 1000.018005,1770.317261 1076.621094,1770.364746 
	C1083.469604,1770.369019 1083.615967,1770.563599 1083.633423,1777.764648 
	C1083.698608,1804.741943 1083.692261,1831.719849 1083.638184,1858.697266 
	C1083.623169,1866.164429 1083.504639,1866.297974 1075.899414,1866.307007 
	C1035.599609,1866.354736 995.299744,1866.329590 953.999817,1866.329712 
z"/>
<path fill="#FFFFFF" opacity="1.000000" stroke="none" 
	d="
M1020.000183,958.333069 
	C1039.651367,958.333984 1058.304688,958.489990 1076.952393,958.236694 
	C1082.197144,958.165466 1083.790649,959.930298 1083.753052,965.098755 
	C1083.552002,992.740967 1083.564941,1020.386108 1083.747314,1048.028564 
	C1083.778320,1052.740845 1082.440918,1054.897949 1077.561157,1054.361206 
	C1075.586792,1054.144287 1073.568359,1054.329590 1071.570068,1054.329590 
	C998.297607,1054.329834 925.025085,1054.329956 851.752625,1054.329468 
	C849.421204,1054.329468 847.075989,1054.160645 844.761536,1054.357300 
	C840.853882,1054.689453 839.306824,1053.018433 839.647156,1049.179565 
	C839.822937,1047.197144 839.670532,1045.185669 839.670532,1043.187378 
	C839.669922,1018.874207 839.628784,994.560974 839.686218,970.247986 
	C839.718689,956.510010 838.402283,958.373291 851.139465,958.359436 
	C907.092957,958.298584 963.046570,958.333069 1020.000183,958.333069 
z"/>
<path fill="#FFFFFF" opacity="1.000000" stroke="none" 
	d="
M2568.000000,1186.329590 
	C2547.350098,1186.329468 2527.700195,1186.329468 2508.050293,1186.329468 
	C2499.669189,1186.329468 2499.649658,1187.191406 2499.659424,1178.479126 
	C2499.690918,1150.169922 2499.633545,1121.860596 2499.698486,1093.551636 
	C2499.714844,1086.514160 2499.867920,1086.361694 2506.843262,1086.357910 
	C2579.114990,1086.319458 2651.386963,1086.319824 2723.658691,1086.354248 
	C2731.543701,1086.358032 2731.631348,1086.488281 2731.644043,1094.800415 
	C2731.686279,1122.443481 2731.681885,1150.086670 2731.646729,1177.729736 
	C2731.635986,1186.231934 2731.564941,1186.311890 2722.868896,1186.316406 
	C2671.579346,1186.343262 2620.289551,1186.329590 2568.000000,1186.329590 
z"/>
<path fill="#FFFFFF" opacity="1.000000" stroke="none" 
	d="
M1994.001221,1086.333130 
	C2055.616211,1086.333130 2116.231201,1086.321045 2176.846191,1086.343384 
	C2188.767822,1086.347778 2187.637695,1085.279297 2187.650879,1096.983887 
	C2187.680420,1122.961792 2187.717285,1148.939697 2187.635498,1174.917358 
	C2187.596924,1187.231323 2189.465088,1186.313843 2176.685547,1186.319824 
	C2125.395752,1186.343506 2074.106201,1186.329712 2022.816406,1186.329590 
	C2002.833374,1186.329590 1982.850342,1186.370972 1962.867554,1186.306274 
	C1955.845703,1186.283447 1955.709229,1186.164795 1955.695557,1179.294800 
	C1955.638794,1150.652588 1955.630127,1122.010132 1955.701294,1093.368042 
	C1955.718262,1086.504517 1955.889771,1086.416382 1963.027100,1086.355591 
	C1973.017944,1086.270508 1983.010010,1086.333496 1994.001221,1086.333130 
z"/>
<path fill="#FFFFFF" opacity="1.000000" stroke="none" 
	d="
M2032.000244,1902.333130 
	C2080.293213,1902.333130 2127.586426,1902.332886 2174.879395,1902.333252 
	C2177.210693,1902.333252 2179.554443,1902.491699 2181.870605,1902.305542 
	C2186.118652,1901.964111 2187.849854,1903.628174 2187.724365,1908.021362 
	C2187.486572,1916.340820 2187.659668,1924.671875 2187.659912,1932.998169 
	C2187.660400,1952.648071 2187.700684,1972.298096 2187.644043,1991.947876 
	C2187.613281,2002.696411 2189.211182,2002.331421 2177.653320,2002.330811 
	C2124.032227,2002.328003 2070.411377,2002.329712 2016.790405,2002.329590 
	C1998.805664,2002.329590 1980.820923,2002.374512 1962.836426,2002.305908 
	C1955.843628,2002.279175 1955.708862,2002.162476 1955.695312,1995.263672 
	C1955.639038,1966.621582 1955.629883,1937.979004 1955.701904,1909.337036 
	C1955.719116,1902.502686 1955.893677,1902.377319 1963.058105,1902.357300 
	C1985.705200,1902.293823 2008.352783,1902.333496 2032.000244,1902.333130 
z"/>
<path fill="#FFFFFF" opacity="1.000000" stroke="none" 
	d="
M2504.227051,2002.313721 
	C2499.870850,2002.440186 2499.662598,2000.203125 2499.671387,1997.670532 
	C2499.701904,1988.677734 2499.672119,1979.684814 2499.671387,1970.691895 
	C2499.669189,1950.707642 2499.637695,1930.723389 2499.686768,1910.739258 
	C2499.707275,1902.455444 2499.787354,1902.352661 2507.654785,1902.349731 
	C2579.597900,1902.322510 2651.541260,1902.320435 2723.484375,1902.352539 
	C2731.529297,1902.356201 2731.627686,1902.475952 2731.641846,1910.627075 
	C2731.689453,1937.938843 2731.679199,1965.250488 2731.650146,1992.562256 
	C2731.639404,2002.474243 2733.046875,2002.336426 2722.037109,2002.334717 
	C2649.760742,2002.323242 2577.484619,2002.327148 2504.227051,2002.313721 
z"/>
<path fill="#FFFFFF" opacity="1.000000" stroke="none" 
	d="
M2070.000000,1358.333130 
	C2106.969482,1358.333252 2142.938721,1358.314087 2178.908203,1358.347656 
	C2187.559082,1358.355713 2187.634033,1358.435669 2187.645996,1367.048950 
	C2187.683594,1394.359009 2187.665771,1421.669189 2187.656738,1448.979248 
	C2187.653564,1458.837402 2188.653320,1458.331787 2177.621094,1458.331177 
	C2122.001953,1458.328003 2066.382568,1458.329590 2010.763306,1458.329590 
	C1994.776978,1458.329590 1978.790283,1458.378540 1962.804321,1458.305664 
	C1955.841675,1458.273926 1955.708496,1458.160400 1955.694946,1451.231445 
	C1955.639282,1422.589355 1955.629272,1393.946777 1955.702393,1365.304810 
	C1955.719849,1358.500732 1955.897339,1358.366943 1963.090210,1358.356689 
	C1998.393433,1358.306274 2033.696777,1358.333496 2070.000000,1358.333130 
z"/>
<path fill="#FFFFFF" opacity="1.000000" stroke="none" 
	d="
M1497.999756,1054.329712 
	C1466.025757,1054.329712 1435.051880,1054.329590 1404.077881,1054.329590 
	C1395.642090,1054.329590 1395.650024,1055.182861 1395.659668,1046.506958 
	C1395.689575,1019.529663 1395.631470,992.552185 1395.697510,965.575073 
	C1395.714722,958.514954 1395.864746,958.361450 1402.819702,958.357910 
	C1477.756714,958.319763 1552.693848,958.320374 1627.630859,958.353821 
	C1635.541382,958.357361 1635.630005,958.486023 1635.643677,966.772522 
	C1635.687256,993.416748 1635.692749,1020.061096 1635.637939,1046.705322 
	C1635.622559,1054.164917 1635.504028,1054.298828 1627.891602,1054.307007 
	C1584.927734,1054.353271 1541.963745,1054.329590 1497.999756,1054.329712 
z"/>
<path fill="#FFFFFF" opacity="1.000000" stroke="none" 
	d="
M1915.660156,982.052246 
	C1915.660156,1003.358704 1915.698364,1023.675781 1915.644531,1043.992554 
	C1915.616089,1054.743164 1917.179199,1054.330566 1905.608032,1054.330322 
	C1850.652466,1054.328857 1795.696899,1054.329712 1740.741333,1054.329590 
	C1721.423584,1054.329590 1702.105835,1054.372925 1682.788330,1054.305420 
	C1675.840576,1054.281128 1675.709229,1054.159546 1675.694458,1047.215210 
	C1675.637085,1020.237122 1675.637939,993.258789 1675.691284,966.280762 
	C1675.706665,958.501099 1675.820557,958.359253 1683.113647,958.355774 
	C1758.052979,958.320129 1832.992432,958.319458 1907.931763,958.355896 
	C1915.494873,958.359558 1915.534180,958.501526 1915.645752,966.074951 
	C1915.719482,971.069885 1915.659912,976.066650 1915.660156,982.052246 
z"/>
<path fill="#FFFFFF" opacity="1.000000" stroke="none" 
	d="
M2223.670654,998.000610 
	C2223.672607,986.010071 2223.801758,975.017151 2223.612549,964.029663 
	C2223.539307,959.763184 2225.007080,957.854431 2229.372314,958.302368 
	C2231.349609,958.505310 2233.365479,958.333313 2235.363770,958.333313 
	C2307.303223,958.333069 2379.242920,958.333008 2451.182373,958.333069 
	C2452.847656,958.333069 2454.513672,958.300110 2456.177979,958.339783 
	C2463.428955,958.512817 2463.609131,958.520020 2463.627686,965.321655 
	C2463.703125,992.964905 2463.540527,1020.609497 2463.764893,1048.251099 
	C2463.805664,1053.294678 2461.893799,1054.772217 2457.339844,1054.356689 
	C2455.358154,1054.175781 2453.345703,1054.329590 2451.347412,1054.329590 
	C2379.407959,1054.329712 2307.468262,1054.366577 2235.528809,1054.297363 
	C2221.837158,1054.284180 2223.805908,1056.196777 2223.697754,1042.963379 
	C2223.578125,1028.309937 2223.670654,1013.654724 2223.670654,998.000610 
z"/>
<path fill="#FFFFFF" opacity="1.000000" stroke="none" 
	d="
M1395.670288,1816.000000 
	C1395.670410,1802.677002 1395.611206,1790.353760 1395.692871,1778.031250 
	C1395.743042,1770.481934 1395.839844,1770.361084 1403.362915,1770.353638 
	C1445.660645,1770.311646 1487.958496,1770.332886 1530.256226,1770.332886 
	C1562.229370,1770.332886 1594.202515,1770.319092 1626.175659,1770.341919 
	C1635.570312,1770.348633 1635.635864,1770.396118 1635.647583,1779.315552 
	C1635.682129,1805.626831 1635.686523,1831.937988 1635.643433,1858.249268 
	C1635.630493,1866.138428 1635.541504,1866.300293 1628.347656,1866.304077 
	C1553.077637,1866.344360 1477.807495,1866.342529 1402.537476,1866.304565 
	C1395.821045,1866.301147 1395.726318,1866.146118 1395.690918,1858.964844 
	C1395.621948,1844.976929 1395.670532,1830.988281 1395.670288,1816.000000 
z"/>
<path fill="#FFFFFF" opacity="1.000000" stroke="none" 
	d="
M799.659973,1796.033936 
	C799.659912,1816.678833 799.698975,1836.329224 799.644287,1855.979370 
	C799.614380,1866.729370 801.187683,1866.330933 789.621643,1866.330566 
	C734.667480,1866.328735 679.713318,1866.329590 624.759155,1866.329590 
	C606.774170,1866.329468 588.788940,1866.374756 570.804199,1866.305542 
	C563.841675,1866.278809 563.709534,1866.160645 563.694702,1859.231445 
	C563.636963,1832.254150 563.638245,1805.276367 563.691162,1778.299072 
	C563.706421,1770.502441 563.819214,1770.359375 571.095032,1770.355835 
	C644.700317,1770.319580 718.305542,1770.319336 791.910828,1770.355835 
	C799.494019,1770.359619 799.540588,1770.500610 799.644287,1778.053711 
	C799.722046,1783.714600 799.659912,1789.377319 799.659973,1796.033936 
z"/>
<path fill="#FFFFFF" opacity="1.000000" stroke="none" 
	d="
M1123.670288,1025.991455 
	C1123.670532,1005.343689 1123.625122,985.693420 1123.693970,966.043579 
	C1123.720581,958.483093 1123.839111,958.356384 1131.350342,958.353088 
	C1204.954956,958.320618 1278.559570,958.317932 1352.164185,958.358398 
	C1359.507690,958.362427 1359.623291,958.520569 1359.638916,966.306641 
	C1359.692871,993.283752 1359.695679,1020.261108 1359.633545,1047.238281 
	C1359.617676,1054.140015 1359.474854,1054.300537 1352.357788,1054.304443 
	C1278.420166,1054.344482 1204.482544,1054.342773 1130.544922,1054.304565 
	C1123.821777,1054.301147 1123.767334,1054.146484 1123.686646,1046.972290 
	C1123.611694,1040.311890 1123.670410,1033.650146 1123.670288,1025.991455 
z"/>
<path fill="#FFFFFF" opacity="1.000000" stroke="none" 
	d="
M781.902222,1054.329712 
	C712.636169,1054.329712 644.358459,1054.329712 576.080750,1054.329590 
	C574.082397,1054.329590 572.048706,1054.087158 570.092346,1054.373291 
	C564.516052,1055.188843 563.554565,1052.394287 563.586243,1047.511353 
	C563.763611,1020.201477 563.632324,992.889648 563.697571,965.578735 
	C563.714478,958.515137 563.864685,958.361572 570.816406,958.357910 
	C644.423096,958.319580 718.029785,958.320129 791.636475,958.353882 
	C799.542114,958.357544 799.630127,958.486389 799.643677,966.778503 
	C799.687134,993.423401 799.692993,1020.068481 799.638000,1046.713379 
	C799.622620,1054.165649 799.503723,1054.183105 791.883057,1054.320435 
	C788.886475,1054.374390 785.888184,1054.329468 781.902222,1054.329712 
z"/>
<path fill="#FFFFFF" opacity="1.000000" stroke="none" 
	d="
M2132.000000,1054.329712 
	C2076.713379,1054.329712 2022.426880,1054.329590 1968.140259,1054.329468 
	C1966.141968,1054.329468 1964.110474,1054.094116 1962.151733,1054.372314 
	C1956.681274,1055.148804 1955.543457,1052.554321 1955.578979,1047.571655 
	C1955.773560,1020.263184 1955.633179,992.952576 1955.696777,965.642883 
	C1955.713379,958.517700 1955.859497,958.362000 1962.751709,958.358337 
	C2035.355835,958.319641 2107.959961,958.316406 2180.564209,958.364014 
	C2187.463623,958.368530 2187.615723,958.558838 2187.633057,965.707275 
	C2187.699463,993.016907 2187.524414,1020.328125 2187.773926,1047.635620 
	C2187.822510,1052.963135 2186.084473,1054.497437 2180.957275,1054.418335 
	C2164.974854,1054.171509 2148.986328,1054.328979 2132.000000,1054.329712 
z"/>
<path fill="#FFFFFF" opacity="1.000000" stroke="none" 
	d="
M2187.660400,1847.893921 
	C2187.660156,1851.543457 2187.667236,1854.207886 2187.658936,1856.872437 
	C2187.628906,1866.709351 2188.760986,1866.334229 2177.727539,1866.333130 
	C2106.785156,1866.326538 2035.843018,1866.329468 1964.900757,1866.329102 
	C1963.568481,1866.329102 1962.225830,1866.215942 1960.906006,1866.343018 
	C1957.166504,1866.703125 1955.598633,1865.325439 1955.615479,1861.327637 
	C1955.736938,1832.684814 1955.720825,1804.041138 1955.632568,1775.398071 
	C1955.620483,1771.470825 1957.229980,1769.984375 1961.002686,1770.316040 
	C1962.654907,1770.461182 1964.331177,1770.333252 1965.996460,1770.333252 
	C2036.272583,1770.332886 2106.548584,1770.322754 2176.824707,1770.343140 
	C2188.755615,1770.346680 2187.635742,1769.279785 2187.651611,1780.962646 
	C2187.681641,1802.944702 2187.660400,1824.926880 2187.660400,1847.893921 
z"/>
<path fill="#FFFFFF" opacity="1.000000" stroke="none" 
	d="
M2606.000000,1770.332886 
	C2644.301270,1770.333008 2681.602295,1770.332886 2718.903564,1770.333252 
	C2721.234863,1770.333252 2723.579834,1770.496948 2725.894775,1770.304199 
	C2730.181396,1769.947388 2731.807617,1771.687378 2731.725342,1776.044556 
	C2731.517334,1787.031006 2731.660156,1798.024292 2731.660156,1809.014771 
	C2731.660400,1826.000122 2731.526123,1842.987305 2731.744873,1859.969849 
	C2731.804443,1864.605347 2730.583984,1866.767212 2725.618652,1866.392578 
	C2721.313721,1866.067993 2716.964600,1866.329590 2712.635010,1866.329590 
	C2645.692627,1866.329834 2578.750244,1866.329590 2511.807861,1866.329102 
	C2509.476562,1866.329102 2507.132080,1866.165527 2504.816895,1866.356934 
	C2500.972656,1866.674805 2499.452393,1865.140259 2499.621094,1861.235352 
	C2499.850830,1855.916748 2499.671387,1850.580444 2499.671143,1845.251709 
	C2499.670166,1823.603760 2499.675049,1801.955688 2499.668945,1780.307739 
	C2499.665771,1768.746704 2499.340088,1770.366943 2510.081787,1770.350342 
	C2541.721191,1770.301758 2573.360596,1770.332886 2606.000000,1770.332886 
z"/>
<path fill="#FFFFFF" opacity="1.000000" stroke="none" 
	d="
M2725.555908,1054.325195 
	C2653.625488,1054.328979 2582.657715,1054.329346 2511.689941,1054.329102 
	C2509.357666,1054.329102 2507.010742,1054.154785 2504.696289,1054.356934 
	C2500.709717,1054.705200 2499.520996,1052.876953 2499.620605,1049.111816 
	C2499.813965,1041.786987 2499.671631,1034.453247 2499.671143,1027.123291 
	C2499.670410,1007.465576 2499.683350,987.807861 2499.665771,968.150146 
	C2499.656006,957.091125 2499.418701,958.344299 2509.247803,958.340576 
	C2553.227783,958.324097 2597.208008,958.333191 2641.187988,958.333252 
	C2661.845215,958.333252 2682.504639,958.504211 2703.159180,958.263489 
	C2713.959717,958.137634 2721.416504,965.283691 2730.161133,969.656921 
	C2731.886475,970.519653 2731.650146,972.453308 2731.650146,974.104431 
	C2731.648926,999.426208 2731.612793,1024.748169 2731.674072,1050.069702 
	C2731.683350,1053.848877 2729.495117,1054.433472 2725.555908,1054.325195 
z"/>
<path fill="#FFFFFF" opacity="1.000000" stroke="none" 
	d="
M936.000244,1510.332275 
	C981.629272,1510.332275 1026.258301,1510.332275 1070.887329,1510.332397 
	C1072.885620,1510.332397 1074.904785,1510.520142 1076.878174,1510.299072 
	C1082.026245,1509.722046 1083.855469,1511.751953 1083.760132,1517.027222 
	C1083.477539,1532.675537 1083.661255,1548.332275 1083.660400,1563.985718 
	C1083.659790,1573.644287 1083.546875,1583.304565 1083.707642,1592.960449 
	C1083.769653,1596.692627 1082.596436,1598.617554 1078.630859,1598.344360 
	C1076.642334,1598.207153 1074.635864,1598.329712 1072.637573,1598.329712 
	C998.699951,1598.330322 924.762390,1598.330444 850.824768,1598.330078 
	C848.826477,1598.330078 846.815247,1598.178955 844.832581,1598.353516 
	C841.008057,1598.690186 839.597595,1597.167603 839.615967,1593.254761 
	C839.736450,1567.610229 839.842651,1541.963135 839.553467,1516.321289 
	C839.484131,1510.173218 842.776123,1510.287354 847.074524,1510.297241 
	C876.382996,1510.365356 905.691589,1510.332642 936.000244,1510.332275 
z"/>
<path fill="#FFFFFF" opacity="1.000000" stroke="none" 
	d="
M1506.000244,1510.332275 
	C1545.633911,1510.332275 1584.267578,1510.332275 1622.901245,1510.332397 
	C1624.899536,1510.332397 1626.918945,1510.521606 1628.891968,1510.298828 
	C1634.059082,1509.715210 1635.853271,1511.785278 1635.759277,1517.040894 
	C1635.479858,1532.689209 1635.661133,1548.345703 1635.660400,1563.999023 
	C1635.659912,1573.657471 1635.545654,1583.317627 1635.708130,1592.973267 
	C1635.771118,1596.718750 1634.572021,1598.617676 1630.617920,1598.344727 
	C1628.629395,1598.207275 1626.623169,1598.329956 1624.624878,1598.329956 
	C1552.020264,1598.330444 1479.415527,1598.330444 1406.810913,1598.330078 
	C1404.812622,1598.330078 1402.801270,1598.177734 1400.818848,1598.353516 
	C1396.979126,1598.693970 1395.508667,1597.144775 1395.615845,1593.239746 
	C1395.826050,1585.585449 1395.670532,1577.921265 1395.669922,1570.261108 
	C1395.668701,1553.608643 1395.674438,1536.956177 1395.668091,1520.303711 
	C1395.663696,1508.744385 1395.342773,1510.365234 1406.084717,1510.349731 
	C1439.056519,1510.302002 1472.028320,1510.332275 1506.000244,1510.332275 
z"/>
<path fill="#FFFFFF" opacity="1.000000" stroke="none" 
	d="
M2366.000000,1598.330322 
	C2321.037598,1598.330322 2277.074951,1598.348267 2233.112549,1598.317139 
	C2222.533691,1598.309692 2223.705566,1599.375854 2223.684326,1588.545532 
	C2223.638184,1564.899170 2223.626953,1541.252563 2223.696777,1517.606323 
	C2223.717529,1510.515747 2223.861572,1510.360962 2230.787354,1510.357544 
	C2306.056396,1510.319702 2381.325439,1510.316406 2456.594482,1510.363770 
	C2463.467041,1510.368164 2463.613037,1510.560913 2463.633789,1517.736694 
	C2463.703613,1542.048950 2463.695801,1566.361816 2463.639160,1590.674194 
	C2463.621582,1598.163330 2463.507324,1598.292603 2455.924072,1598.306885 
	C2426.282715,1598.363037 2396.641357,1598.330078 2366.000000,1598.330322 
z"/>
<path fill="#FFFFFF" opacity="1.000000" stroke="none" 
	d="
M1635.655884,577.999878 
	C1635.655151,591.319885 1635.486816,603.643372 1635.739868,615.958313 
	C1635.834961,620.585266 1634.591797,622.915833 1629.625854,622.357483 
	C1627.653076,622.135742 1625.634277,622.325500 1623.636353,622.325562 
	C1556.042236,622.325745 1488.447998,622.325623 1420.853882,622.325623 
	C1417.266724,622.325623 1413.679443,622.325684 1409.217773,622.325684 
	C1412.470947,612.555542 1417.713135,604.923889 1421.966187,596.872131 
	C1434.686279,572.790894 1448.017212,549.030518 1460.597778,524.878235 
	C1464.292358,517.785278 1468.778809,515.401733 1476.814453,515.469177 
	C1525.758545,515.880066 1574.707764,515.674316 1623.655273,515.674561 
	C1625.653076,515.674561 1627.672119,515.865051 1629.644653,515.642395 
	C1634.633911,515.079346 1635.801636,517.460876 1635.738525,522.059937 
	C1635.519287,538.039795 1635.655273,554.024475 1635.655884,570.007324 
	C1635.656006,572.338196 1635.655884,574.669067 1635.655884,577.999878 
z"/>
<path fill="#FFFFFF" opacity="1.000000" stroke="none" 
	d="
M644.000244,1510.332275 
	C692.292664,1510.332275 739.585144,1510.332275 786.877563,1510.332397 
	C788.875854,1510.332397 790.894653,1510.518799 792.868347,1510.298950 
	C798.002502,1509.727173 799.870422,1511.726807 799.760742,1517.017334 
	C799.463806,1531.332153 799.660461,1545.657227 799.660461,1559.978149 
	C799.660461,1570.635620 799.476929,1581.297485 799.743042,1591.948364 
	C799.858276,1596.561523 798.623352,1598.923462 793.641174,1598.362427 
	C791.668091,1598.140259 789.648804,1598.330078 787.650513,1598.330078 
	C716.711853,1598.330322 645.773193,1598.330444 574.834534,1598.330078 
	C572.836304,1598.330078 570.825317,1598.179810 568.842529,1598.353516 
	C565.029297,1598.687500 563.597229,1597.189087 563.615784,1593.264893 
	C563.737061,1567.620850 563.782288,1541.975342 563.582764,1516.332397 
	C563.543884,1511.338989 565.478577,1510.218628 570.063965,1510.251709 
	C594.374939,1510.427612 618.687927,1510.333130 644.000244,1510.332275 
z"/>
<path fill="#FFFFFF" opacity="1.000000" stroke="none" 
	d="
M1083.660889,1717.619751 
	C1083.026978,1726.168579 1083.027710,1726.221680 1076.017456,1726.313965 
	C1070.022949,1726.392700 1064.026367,1726.330811 1058.030762,1726.330811 
	C989.413940,1726.330811 920.797058,1726.330933 852.180237,1726.330811 
	C850.181702,1726.330811 848.151245,1726.100220 846.190674,1726.372681 
	C840.787292,1727.123535 839.524414,1724.660400 839.572632,1719.610474 
	C839.794983,1696.296265 839.626953,1672.978516 839.695740,1649.662354 
	C839.716858,1642.517578 839.857971,1642.360840 846.732239,1642.357422 
	C923.343262,1642.319336 999.954285,1642.316284 1076.565308,1642.363037 
	C1083.464722,1642.367310 1083.610107,1642.558105 1083.633667,1649.708618 
	C1083.707397,1672.025513 1083.660889,1694.342773 1083.660889,1717.619751 
z"/>
<path fill="#FFFFFF" opacity="1.000000" stroke="none" 
	d="
M1061.923462,1238.331909 
	C1067.573242,1238.332764 1072.255981,1238.603027 1076.893799,1238.262939 
	C1082.076050,1237.882812 1083.809082,1239.796021 1083.758545,1245.042969 
	C1083.530762,1268.688232 1083.658936,1292.337036 1083.658569,1315.984497 
	C1083.658569,1316.317505 1083.623413,1316.653931 1083.658203,1316.983154 
	C1084.054565,1320.733032 1082.554932,1322.617798 1078.608765,1322.345215 
	C1076.620117,1322.207642 1074.613770,1322.330566 1072.615356,1322.330566 
	C998.675232,1322.330933 924.735168,1322.330933 850.795044,1322.330444 
	C848.796692,1322.330444 846.785034,1322.176636 844.802734,1322.353760 
	C840.944397,1322.698730 839.333618,1321.111328 839.637817,1317.222168 
	C839.844971,1314.574219 839.669678,1311.896362 839.669617,1309.231934 
	C839.668823,1289.581177 839.613953,1269.930176 839.687744,1250.279785 
	C839.740479,1236.234863 838.277710,1238.439087 852.105835,1238.363403 
	C873.754272,1238.244873 895.403931,1238.331787 917.053040,1238.331787 
	C965.014221,1238.331787 1012.975342,1238.331909 1061.923462,1238.331909 
z"/>
<path fill="#FFFFFF" opacity="1.000000" stroke="none" 
	d="
M1955.669678,1526.134888 
	C1955.671265,1510.332764 1955.671265,1510.332397 1970.225952,1510.332275 
	C2038.171021,1510.332153 2106.115967,1510.332275 2174.061035,1510.332397 
	C2176.059326,1510.332397 2178.058594,1510.296875 2180.055908,1510.339844 
	C2187.501953,1510.499512 2187.620117,1510.509033 2187.638672,1518.197998 
	C2187.697510,1542.511597 2187.699219,1566.825439 2187.634766,1591.138916 
	C2187.616455,1598.130859 2187.479736,1598.299561 2180.457764,1598.303589 
	C2107.849854,1598.345825 2035.241943,1598.343384 1962.634033,1598.305786 
	C1955.829102,1598.302246 1955.712402,1598.151245 1955.692139,1591.062134 
	C1955.631348,1569.746216 1955.669922,1548.429932 1955.669678,1526.134888 
z"/>
<path fill="#FFFFFF" opacity="1.000000" stroke="none" 
	d="
M2570.000000,1510.332275 
	C2620.290283,1510.332275 2669.580322,1510.332275 2718.870605,1510.332520 
	C2720.868896,1510.332520 2722.887451,1510.517944 2724.861328,1510.299072 
	C2729.985352,1509.730713 2731.871826,1511.709351 2731.761475,1517.009888 
	C2731.463135,1531.324463 2731.660645,1545.649414 2731.660645,1559.970215 
	C2731.660400,1570.627563 2731.478516,1581.289429 2731.742432,1591.940186 
	C2731.856689,1596.542725 2730.645020,1598.881836 2725.648682,1598.373291 
	C2723.011963,1598.104736 2720.324951,1598.330078 2717.660645,1598.330078 
	C2649.053955,1598.330444 2580.447510,1598.330444 2511.840820,1598.330078 
	C2509.509521,1598.330078 2507.165771,1598.169922 2504.850098,1598.357666 
	C2501.043945,1598.666260 2499.596924,1597.204712 2499.615479,1593.272217 
	C2499.737549,1567.628540 2499.781494,1541.983154 2499.583008,1516.340576 
	C2499.544434,1511.357788 2501.458740,1510.208618 2506.055908,1510.250366 
	C2527.035889,1510.441528 2548.018311,1510.333008 2570.000000,1510.332275 
z"/>
<path fill="#FFFFFF" opacity="1.000000" stroke="none" 
	d="
M1915.661133,1674.009033 
	C1915.660278,1689.993774 1915.513672,1704.983276 1915.745483,1719.966919 
	C1915.817261,1724.599365 1914.582031,1726.938843 1909.624390,1726.356689 
	C1907.981934,1726.163940 1906.297607,1726.330444 1904.632324,1726.330444 
	C1832.027588,1726.330688 1759.422974,1726.330811 1686.818237,1726.330444 
	C1684.819946,1726.330444 1682.808716,1726.178589 1680.826172,1726.353638 
	C1676.994751,1726.692139 1675.595825,1725.154907 1675.615479,1721.248779 
	C1675.740112,1696.603882 1675.728027,1671.957886 1675.633423,1647.312622 
	C1675.618042,1643.309937 1677.398315,1642.024536 1681.086182,1642.311035 
	C1683.072266,1642.465454 1685.080566,1642.332275 1687.078857,1642.332275 
	C1759.350464,1642.331909 1831.622192,1642.331909 1903.893799,1642.331909 
	C1904.559937,1642.331909 1905.225952,1642.332031 1905.892090,1642.332031 
	C1916.327515,1642.330811 1915.672852,1641.663330 1915.662598,1652.029297 
	C1915.655762,1659.023315 1915.661133,1666.017334 1915.661133,1674.009033 
z"/>
<path fill="#FFFFFF" opacity="1.000000" stroke="none" 
	d="
M1395.671265,1719.810303 
	C1395.669556,1696.175171 1395.640259,1673.526978 1395.684570,1650.878906 
	C1395.701050,1642.468262 1395.779663,1642.353394 1403.512817,1642.350342 
	C1478.118408,1642.320679 1552.723877,1642.320557 1627.329468,1642.349609 
	C1635.518311,1642.352783 1635.621338,1642.462158 1635.641113,1650.469727 
	C1635.697266,1673.117676 1635.692993,1695.766113 1635.642944,1718.414062 
	C1635.625610,1726.216919 1635.532104,1726.294678 1627.185059,1726.314819 
	C1607.201538,1726.363159 1587.217896,1726.330811 1567.234253,1726.330811 
	C1513.944580,1726.330933 1460.654907,1726.331299 1407.365234,1726.329712 
	C1404.700806,1726.329712 1402.035034,1726.256226 1399.372192,1726.317383 
	C1395.188965,1726.413574 1395.733521,1723.420532 1395.671265,1719.810303 
z"/>
<path fill="#FFFFFF" opacity="1.000000" stroke="none" 
	d="
M1146.052246,1238.331909 
	C1214.321533,1238.331909 1281.597656,1238.321289 1348.873779,1238.341797 
	C1360.765015,1238.345459 1359.634521,1237.280762 1359.652344,1249.009399 
	C1359.684082,1269.991577 1359.699585,1290.973755 1359.644897,1311.955811 
	C1359.616943,1322.704468 1361.206055,1322.332642 1349.647217,1322.332031 
	C1296.692261,1322.329468 1243.737305,1322.331055 1190.782349,1322.330811 
	C1170.799316,1322.330811 1150.816284,1322.372314 1130.833496,1322.306763 
	C1123.842529,1322.283936 1123.712524,1322.163696 1123.694092,1315.262451 
	C1123.631714,1291.949219 1123.620605,1268.635376 1123.701172,1245.322144 
	C1123.724854,1238.500610 1123.894043,1238.462036 1131.071167,1238.346924 
	C1135.732666,1238.272217 1140.396362,1238.332275 1146.052246,1238.331909 
z"/>
<path fill="#FFFFFF" opacity="1.000000" stroke="none" 
	d="
M646.000244,1238.331909 
	C693.626221,1238.331909 740.252258,1238.331787 786.878235,1238.331909 
	C788.876526,1238.331909 790.895325,1238.518555 792.869019,1238.298706 
	C798.003479,1237.726807 799.851685,1239.728882 799.761230,1245.016968 
	C799.482117,1261.331299 799.661316,1277.653442 799.660706,1293.972534 
	C799.660400,1301.632568 799.531677,1309.295288 799.707092,1316.951294 
	C799.792480,1320.675781 798.614075,1322.617676 794.640503,1322.344116 
	C792.651917,1322.207153 790.645630,1322.330322 788.647400,1322.330322 
	C717.376221,1322.330933 646.105103,1322.330933 574.833923,1322.330566 
	C572.835693,1322.330566 570.824707,1322.180176 568.841919,1322.353760 
	C565.028442,1322.687744 563.595093,1321.188843 563.615173,1317.264771 
	C563.739563,1292.953369 563.787109,1268.639893 563.582092,1244.329468 
	C563.539917,1239.332886 565.484192,1238.219849 570.066101,1238.251587 
	C595.043152,1238.424683 620.021973,1238.332764 646.000244,1238.331909 
z"/>
<path fill="#FFFFFF" opacity="1.000000" stroke="none" 
	d="
M668.000244,1642.331909 
	C708.299316,1642.331909 747.598328,1642.331787 786.897400,1642.331909 
	C788.895691,1642.332031 790.914978,1642.520508 792.888123,1642.298340 
	C798.049133,1641.717041 799.843445,1643.775635 799.759949,1649.036011 
	C799.490356,1666.016968 799.661194,1683.004761 799.660583,1699.989990 
	C799.660339,1706.983887 799.522766,1713.981323 799.706970,1720.970215 
	C799.805664,1724.714966 798.577820,1726.617676 794.621277,1726.344849 
	C792.632751,1726.207642 790.626465,1726.330566 788.628235,1726.330566 
	C717.357056,1726.330933 646.085876,1726.330811 574.814697,1726.330444 
	C572.816467,1726.330444 570.805237,1726.178711 568.822754,1726.354004 
	C564.987671,1726.693359 563.596069,1725.147705 563.615784,1721.245605 
	C563.738586,1696.934204 563.850281,1672.619507 563.552612,1648.311035 
	C563.477173,1642.147949 566.798218,1642.287231 571.083923,1642.298218 
	C598.060303,1642.366333 625.036804,1642.332153 652.013306,1642.331909 
	C657.008911,1642.331909 662.004578,1642.331909 668.000244,1642.331909 
z"/>
<path fill="#FFFFFF" opacity="1.000000" stroke="none" 
	d="
M2686.000000,1322.330811 
	C2627.384277,1322.330811 2569.768555,1322.330811 2512.152832,1322.330688 
	C2510.154541,1322.330688 2508.123535,1322.096924 2506.164307,1322.372925 
	C2500.717773,1323.140381 2499.529541,1320.592163 2499.575684,1315.585938 
	C2499.790283,1292.275146 2499.627197,1268.961182 2499.696289,1245.648682 
	C2499.717285,1238.517090 2499.858643,1238.361084 2506.744141,1238.357422 
	C2579.346680,1238.318604 2651.948975,1238.315430 2724.551514,1238.362793 
	C2731.463135,1238.367310 2731.611572,1238.556763 2731.633545,1245.692993 
	C2731.705811,1269.005493 2731.506836,1292.320068 2731.775146,1315.629761 
	C2731.836670,1320.948364 2730.103760,1322.531616 2724.964600,1322.419312 
	C2712.315186,1322.142944 2699.655518,1322.330078 2686.000000,1322.330811 
z"/>
<path fill="#FFFFFF" opacity="1.000000" stroke="none" 
	d="
M2691.999512,1726.330811 
	C2631.385742,1726.330811 2571.771729,1726.330933 2512.157715,1726.330811 
	C2510.159424,1726.330811 2508.128662,1726.097900 2506.169189,1726.373169 
	C2500.731201,1727.137207 2499.528564,1724.605347 2499.575195,1719.590820 
	C2499.791504,1696.280029 2499.627197,1672.965942 2499.696289,1649.653442 
	C2499.717285,1642.517212 2499.858643,1642.361084 2506.739258,1642.357300 
	C2579.341797,1642.318481 2651.944336,1642.315430 2724.546875,1642.362793 
	C2731.462646,1642.367310 2731.611084,1642.556396 2731.633301,1649.688354 
	C2731.705811,1673.000854 2731.507324,1696.315430 2731.774902,1719.625122 
	C2731.835693,1724.937134 2730.116211,1726.562012 2724.968506,1726.418457 
	C2714.319580,1726.121338 2703.656494,1726.330078 2691.999512,1726.330811 
z"/>
<path fill="#FFFFFF" opacity="1.000000" stroke="none" 
	d="
M2187.661377,1682.000854 
	C2187.660400,1695.322998 2187.491211,1707.648804 2187.745361,1719.966064 
	C2187.841064,1724.599976 2186.583252,1726.938721 2181.625244,1726.356567 
	C2179.982910,1726.163818 2178.298584,1726.330566 2176.633301,1726.330566 
	C2106.695068,1726.330811 2036.756714,1726.330811 1966.818359,1726.330322 
	C1964.820068,1726.330322 1962.808960,1726.178833 1960.826416,1726.353882 
	C1956.995483,1726.692017 1955.595825,1725.155640 1955.615601,1721.249268 
	C1955.740112,1696.605103 1955.728027,1671.959717 1955.633423,1647.315186 
	C1955.618042,1643.314941 1957.392944,1642.023682 1961.083374,1642.310791 
	C1963.069336,1642.465454 1965.077637,1642.332153 1967.075806,1642.332153 
	C2036.681030,1642.331787 2106.286377,1642.331909 2175.891602,1642.331909 
	C2176.557617,1642.331909 2177.223877,1642.331909 2177.889893,1642.331909 
	C2188.320068,1642.331543 2187.671387,1641.656616 2187.663086,1652.026733 
	C2187.655273,1661.684937 2187.661377,1671.343018 2187.661377,1682.000854 
z"/>
<path fill="#FFFFFF" opacity="1.000000" stroke="none" 
	d="
M1527.999756,2002.330322 
	C1502.023804,2002.330322 1477.047729,2002.330322 1452.071777,2002.330200 
	C1443.645752,2002.330200 1443.649902,2003.184082 1443.658936,1994.503906 
	C1443.688477,1966.197754 1443.632568,1937.891602 1443.696777,1909.585571 
	C1443.712769,1902.515015 1443.863037,1902.362427 1450.806641,1902.357544 
	C1510.083008,1902.315796 1569.359253,1902.311768 1628.635620,1902.364746 
	C1635.471680,1902.370850 1635.618286,1902.564209 1635.634399,1909.776489 
	C1635.697632,1938.082520 1635.691528,1966.388672 1635.638794,1994.694824 
	C1635.624878,2002.164673 1635.505859,2002.295044 1627.904907,2002.307251 
	C1594.936523,2002.360107 1561.968262,2002.330200 1527.999756,2002.330322 
z"/>
<path fill="#FFFFFF" opacity="1.000000" stroke="none" 
	d="
M1123.671631,725.999756 
	C1123.672363,709.013184 1123.828857,693.024292 1123.583252,677.041504 
	C1123.504639,671.922729 1125.020020,670.155151 1130.359009,670.218933 
	C1153.336548,670.493347 1176.319092,670.323181 1199.299805,670.355957 
	C1201.574585,670.359192 1203.686279,670.536743 1205.962769,671.665527 
	C1253.894897,695.432617 1301.923584,719.004639 1349.865845,742.751404 
	C1353.292969,744.448914 1358.611206,744.946716 1359.246826,749.304016 
	C1360.149902,755.494263 1359.578003,761.917847 1359.391235,768.234497 
	C1359.350952,769.601196 1357.759644,770.214050 1356.353394,770.256958 
	C1354.023804,770.328125 1351.691528,770.325989 1349.360352,770.326050 
	C1277.420898,770.328979 1205.481323,770.328491 1133.541870,770.328308 
	C1132.209717,770.328308 1130.853516,770.162781 1129.549561,770.354004 
	C1124.393555,771.110168 1123.506958,768.449768 1123.592529,763.967163 
	C1123.827637,751.648621 1123.672363,739.322693 1123.671631,725.999756 
z"/>
<path fill="#FFFFFF" opacity="1.000000" stroke="none" 
	d="
M2897.030273,1059.307373 
	C2900.342285,1061.078613 2903.097412,1062.296631 2905.537109,1065.232056 
	C2895.653076,1082.945190 2885.687256,1100.861938 2875.666748,1118.747925 
	C2864.297363,1139.040283 2852.644043,1159.178955 2841.642822,1179.668457 
	C2838.822266,1184.922363 2835.599121,1186.564331 2829.955078,1186.437378 
	C2815.303467,1186.107544 2800.639648,1186.379517 2785.980957,1186.309692 
	C2774.478027,1186.254761 2775.707275,1187.644897 2775.690430,1176.402710 
	C2775.642090,1144.419922 2775.673584,1112.437134 2775.673584,1080.454346 
	C2775.673584,1055.467773 2775.642334,1030.481079 2775.712402,1005.494690 
	C2775.721436,1002.305725 2774.951660,998.969788 2777.126709,994.692322 
	C2817.021240,1016.188354 2856.686035,1037.560547 2897.030273,1059.307373 
z"/>
<path fill="#FFFFFF" opacity="1.000000" stroke="none" 
	d="
M2019.999756,1322.331421 
	C2000.352051,1322.331299 1981.704346,1322.371338 1963.056885,1322.310547 
	C1955.853516,1322.286987 1955.714233,1322.183105 1955.695312,1315.489258 
	C1955.629639,1292.179932 1955.625122,1268.870117 1955.696167,1245.560791 
	C1955.717651,1238.512939 1955.864380,1238.361572 1962.828735,1238.356445 
	C2020.436646,1238.313965 2078.044678,1238.314697 2135.652588,1238.352661 
	C2143.544678,1238.357788 2143.628418,1238.485962 2143.645752,1246.788818 
	C2143.692627,1269.432251 2143.699463,1292.076172 2143.639893,1314.719604 
	C2143.620117,1322.167358 2143.505127,1322.299072 2135.882812,1322.308716 
	C2097.588379,1322.357422 2059.294189,1322.331177 2019.999756,1322.331421 
z"/>
<path fill="#FFFFFF" opacity="1.000000" stroke="none" 
	d="
M1735.999756,1322.331421 
	C1717.684082,1322.331177 1700.368286,1322.373413 1683.052856,1322.310547 
	C1675.853394,1322.284424 1675.714233,1322.182739 1675.695312,1315.485229 
	C1675.629639,1292.175903 1675.625122,1268.866089 1675.696289,1245.556763 
	C1675.717773,1238.512817 1675.864990,1238.361572 1682.832764,1238.356445 
	C1740.440674,1238.314087 1798.048706,1238.314941 1855.656616,1238.352417 
	C1863.472778,1238.357422 1863.612915,1238.484375 1863.635376,1245.793945 
	C1863.705811,1268.770264 1863.698975,1291.747192 1863.639648,1314.723633 
	C1863.620361,1322.167725 1863.504395,1322.299561 1855.878662,1322.308716 
	C1816.252441,1322.356445 1776.626099,1322.331177 1735.999756,1322.331421 
z"/>
<path fill="#FFFFFF" opacity="1.000000" stroke="none" 
	d="
M1694.047852,1866.331421 
	C1689.390747,1866.330811 1685.687866,1865.986694 1682.074707,1866.408813 
	C1676.453735,1867.065308 1675.556152,1864.351318 1675.586792,1859.497559 
	C1675.759155,1832.195312 1675.630737,1804.891113 1675.695557,1777.588013 
	C1675.712402,1770.514160 1675.861694,1770.364014 1682.800537,1770.356934 
	C1728.750122,1770.310059 1774.699707,1770.304565 1820.649292,1770.364258 
	C1827.474243,1770.373047 1827.618530,1770.564209 1827.635742,1777.786743 
	C1827.700195,1804.756958 1827.694092,1831.727539 1827.639893,1858.697876 
	C1827.625000,1866.165771 1827.506592,1866.300049 1819.905518,1866.308594 
	C1778.284546,1866.355591 1736.663452,1866.331177 1694.047852,1866.331421 
z"/>
<path fill="#FFFFFF" opacity="1.000000" stroke="none" 
	d="
M1633.348877,478.047607 
	C1584.251343,478.267395 1536.083984,478.267395 1486.256714,478.267395 
	C1491.251831,468.946838 1495.406128,461.138824 1499.611206,453.358185 
	C1519.371826,416.794525 1539.203003,380.268677 1558.831421,343.634216 
	C1560.873657,339.822479 1562.369995,339.041046 1566.382324,341.259369 
	C1587.622314,353.002655 1609.001587,364.497101 1630.440552,375.874390 
	C1634.078735,377.805176 1635.794434,379.880249 1635.764404,384.261322 
	C1635.560547,413.925385 1635.652710,443.591522 1635.651733,473.256989 
	C1635.651733,474.921265 1635.731445,476.602814 1633.348877,478.047607 
z"/>
<path fill="#FFFFFF" opacity="1.000000" stroke="none" 
	d="
M2232.159424,1458.331787 
	C2226.052734,1459.020508 2223.463379,1457.794800 2223.531006,1451.611206 
	C2223.844727,1422.979858 2223.633057,1394.342896 2223.694824,1365.708252 
	C2223.710205,1358.518311 2223.854980,1358.366333 2230.679443,1358.357422 
	C2269.968994,1358.305908 2309.258545,1358.300293 2348.548096,1358.362549 
	C2355.463623,1358.373535 2355.618164,1358.555298 2355.634766,1365.684448 
	C2355.700928,1393.986084 2355.692139,1422.287964 2355.642334,1450.589844 
	C2355.628906,1458.158569 2355.517090,1458.297852 2348.014648,1458.307861 
	C2309.723877,1458.358887 2271.433350,1458.331787 2232.159424,1458.331787 
z"/>
<path fill="#FFFFFF" opacity="1.000000" stroke="none" 
	d="
M1635.662354,1402.000244 
	C1635.661499,1419.314087 1635.528809,1435.629761 1635.744263,1451.940796 
	C1635.804932,1456.532104 1634.644409,1458.436157 1629.659668,1458.416260 
	C1589.375000,1458.255981 1549.089233,1458.288330 1508.804199,1458.382446 
	C1504.963867,1458.391357 1503.601074,1457.119263 1503.615601,1453.234497 
	C1503.725952,1423.603638 1503.766602,1393.971436 1503.582275,1364.341309 
	C1503.551270,1359.365723 1505.447998,1358.197998 1510.049316,1358.248169 
	C1528.691406,1358.451660 1547.337280,1358.330933 1565.981689,1358.330811 
	C1586.623779,1358.330566 1607.265869,1358.287598 1627.907715,1358.354736 
	C1635.495850,1358.379517 1635.587769,1358.498291 1635.640503,1366.041992 
	C1635.721924,1377.694336 1635.662231,1389.347534 1635.662354,1402.000244 
z"/>
<path fill="#FFFFFF" opacity="1.000000" stroke="none" 
	d="
M2390.000000,1322.332275 
	C2364.694580,1322.332153 2340.389160,1322.331909 2316.083740,1322.332031 
	C2307.637939,1322.332031 2307.645020,1323.183594 2307.657227,1314.521484 
	C2307.689453,1291.547852 2307.624023,1268.573975 2307.695068,1245.600586 
	C2307.716797,1238.513916 2307.860107,1238.363037 2314.786377,1238.356201 
	C2362.065430,1238.309692 2409.344482,1238.304565 2456.623535,1238.363037 
	C2463.471924,1238.371460 2463.614258,1238.561279 2463.635986,1245.759155 
	C2463.705811,1269.065552 2463.501465,1292.374146 2463.780273,1315.677368 
	C2463.844727,1321.064209 2461.993896,1322.464478 2456.923828,1322.417480 
	C2434.950684,1322.214600 2412.974854,1322.331543 2390.000000,1322.332275 
z"/>
<path fill="#FFFFFF" opacity="1.000000" stroke="none" 
	d="
M1787.668091,1934.006104 
	C1787.668335,1925.350342 1787.602783,1917.692261 1787.687378,1910.035767 
	C1787.770752,1902.480591 1787.837280,1902.362671 1795.349731,1902.351929 
	C1828.310059,1902.304199 1861.270264,1902.330811 1894.230591,1902.330933 
	C1899.224609,1902.331055 1904.229614,1902.540649 1909.209229,1902.273315 
	C1913.741455,1902.029907 1915.783081,1903.306030 1915.750732,1908.350586 
	C1915.562500,1937.647339 1915.548706,1966.946899 1915.765747,1996.243286 
	C1915.802979,2001.268555 1913.918579,2002.410889 1909.357788,2002.396729 
	C1870.738037,2002.276978 1832.117310,2002.233765 1793.498291,2002.440918 
	C1788.284668,2002.468872 1787.556396,2000.346558 1787.593994,1995.930420 
	C1787.766479,1975.623047 1787.668823,1955.313232 1787.668091,1934.006104 
z"/>
<path fill="#FFFFFF" opacity="1.000000" stroke="none" 
	d="
M2331.668213,1792.050537 
	C2331.674561,1785.731567 2331.748779,1780.403442 2331.661621,1775.077881 
	C2331.607910,1771.803223 2332.841797,1770.069458 2336.316650,1770.328613 
	C2337.640869,1770.427368 2338.978760,1770.331543 2340.310547,1770.331543 
	C2378.598877,1770.330811 2416.887207,1770.311035 2455.175537,1770.347290 
	C2463.508789,1770.355225 2463.625244,1770.447754 2463.641113,1778.308472 
	C2463.695801,1805.276611 2463.698242,1832.245117 2463.635986,1859.213257 
	C2463.620117,1866.140015 2463.478271,1866.295898 2456.390869,1866.305664 
	C2417.103760,1866.359497 2377.816650,1866.356445 2338.529541,1866.305908 
	C2331.818604,1866.297241 2331.708008,1866.147583 2331.689453,1858.965088 
	C2331.632568,1836.991089 2331.668457,1815.016724 2331.668213,1792.050537 
z"/>
<path fill="#FFFFFF" opacity="1.000000" stroke="none" 
	d="
M1359.662354,879.996094 
	C1359.661987,889.651245 1359.727051,898.307922 1359.640869,906.963074 
	C1359.569702,914.110352 1359.491699,914.235352 1352.641357,914.302307 
	C1341.655884,914.409790 1330.668579,914.332092 1319.682129,914.332031 
	C1296.710449,914.331909 1273.738525,914.370056 1250.767090,914.307434 
	C1243.837402,914.288513 1243.703735,914.160278 1243.692017,907.202942 
	C1243.639160,875.908264 1243.630127,844.613281 1243.699829,813.318604 
	C1243.714966,806.499695 1243.893555,806.365723 1251.067505,806.354675 
	C1284.692749,806.303040 1318.318115,806.301636 1351.943359,806.354736 
	C1359.497192,806.366699 1359.616455,806.500122 1359.639160,814.076843 
	C1359.703857,835.716736 1359.662231,857.356873 1359.662354,879.996094 
z"/>
<path fill="#FFFFFF" opacity="1.000000" stroke="none" 
	d="
M1239.667725,1971.994995 
	C1239.667847,1950.687500 1239.623779,1930.379395 1239.691040,1910.071777 
	C1239.716187,1902.484009 1239.834351,1902.361938 1247.312378,1902.351929 
	C1282.268677,1902.304932 1317.224854,1902.299683 1352.181152,1902.357178 
	C1359.510986,1902.369263 1359.626953,1902.520020 1359.641479,1910.313843 
	C1359.693970,1938.611694 1359.696655,1966.909790 1359.636230,1995.207520 
	C1359.621460,2002.139526 1359.478760,2002.294067 1352.397949,2002.305542 
	C1317.108765,2002.362549 1281.819702,2002.359497 1246.530518,2002.306030 
	C1239.818604,2002.295898 1239.759033,2002.148193 1239.685059,1994.967041 
	C1239.609497,1987.643555 1239.667969,1980.318848 1239.667725,1971.994995 
z"/>
<path fill="#FFFFFF" opacity="1.000000" stroke="none" 
	d="
M1309.999756,1866.332275 
	C1288.692383,1866.332153 1268.384888,1866.331909 1248.077515,1866.332153 
	C1239.637451,1866.332275 1239.647827,1867.180054 1239.657349,1858.517212 
	C1239.687012,1831.551636 1239.629639,1804.585938 1239.694336,1777.620605 
	C1239.711426,1770.514771 1239.857666,1770.367065 1246.764404,1770.356567 
	C1282.052612,1770.302979 1317.341064,1770.296265 1352.629150,1770.363647 
	C1359.472534,1770.376709 1359.619019,1770.561768 1359.635986,1777.762939 
	C1359.700439,1805.061157 1359.524780,1832.360962 1359.777710,1859.657104 
	C1359.827148,1865.008545 1358.047729,1866.513672 1352.944824,1866.419312 
	C1338.967407,1866.160767 1324.982056,1866.331543 1309.999756,1866.332275 
z"/>
<path fill="#FFFFFF" opacity="1.000000" stroke="none" 
	d="
M1126.264648,1726.207886 
	C1123.161865,1724.785767 1123.693726,1722.624390 1123.691040,1720.710327 
	C1123.658325,1697.070801 1123.625610,1673.431152 1123.692749,1649.791870 
	C1123.713623,1642.455688 1123.851318,1642.354126 1131.592285,1642.346924 
	C1171.546387,1642.310303 1211.500488,1642.307617 1251.454590,1642.349365 
	C1259.529785,1642.357910 1259.625488,1642.469849 1259.644897,1650.586182 
	C1259.698120,1672.893799 1259.650146,1695.201660 1259.669434,1717.509399 
	C1259.677368,1726.707520 1260.381104,1726.342163 1250.100952,1726.337158 
	C1209.147949,1726.317627 1168.195068,1726.314209 1126.264648,1726.207886 
z"/>
<path fill="#FFFFFF" opacity="1.000000" stroke="none" 
	d="
M1243.663452,1554.000122 
	C1243.662720,1567.317139 1243.497681,1579.637695 1243.746094,1591.949829 
	C1243.838989,1596.554199 1242.627686,1598.440552 1237.653320,1598.417725 
	C1201.368286,1598.250488 1165.082153,1598.285278 1128.796631,1598.383911 
	C1124.950073,1598.394409 1123.596436,1597.107910 1123.614258,1593.230103 
	C1123.732056,1567.597534 1123.778931,1541.963379 1123.580322,1516.331909 
	C1123.541504,1511.346558 1125.465942,1510.211304 1130.055176,1510.248291 
	C1152.690552,1510.431152 1175.328491,1510.329834 1197.965454,1510.329712 
	C1210.948364,1510.329712 1223.935669,1510.525879 1236.912231,1510.236816 
	C1242.095825,1510.121460 1243.895996,1511.811523 1243.760010,1517.049927 
	C1243.449219,1529.026123 1243.662842,1541.015991 1243.663452,1554.000122 
z"/>
<path fill="#FFFFFF" opacity="1.000000" stroke="none" 
	d="
M2731.663574,1433.962402 
	C2731.663574,1439.615112 2731.681641,1444.275757 2731.659912,1448.936279 
	C2731.616211,1458.247314 2731.607422,1458.298706 2722.676514,1458.321899 
	C2707.030273,1458.362427 2691.383789,1458.333496 2675.737549,1458.333130 
	C2661.755615,1458.332764 2647.770264,1458.152100 2633.793945,1458.428955 
	C2629.000000,1458.523926 2627.539795,1457.041992 2627.572021,1452.227539 
	C2627.768311,1422.933472 2627.764404,1393.637085 2627.581299,1364.343018 
	C2627.550293,1359.372070 2629.441895,1358.224121 2634.043945,1358.248657 
	C2664.336914,1358.409790 2694.632080,1358.430908 2724.924805,1358.237793 
	C2730.114990,1358.204712 2731.812012,1359.844727 2731.759521,1365.059448 
	C2731.531738,1387.694336 2731.662842,1410.333008 2731.663574,1433.962402 
z"/>
<path fill="#FFFFFF" opacity="1.000000" stroke="none" 
	d="
M1152.008301,914.333252 
	C1145.018555,914.333252 1139.026489,914.363586 1133.034790,914.326416 
	C1122.531250,914.261292 1123.705444,915.328186 1123.680542,904.481201 
	C1123.633301,883.842590 1123.666504,863.203857 1123.667114,842.565125 
	C1123.667358,832.578674 1123.833374,822.588318 1123.597534,812.607422 
	C1123.488770,808.000183 1124.794556,806.185547 1129.780273,806.227417 
	C1156.409058,806.450745 1183.040771,806.382324 1209.671021,806.283020 
	C1213.688843,806.268066 1215.747070,807.223755 1215.728394,811.806763 
	C1215.596802,844.095825 1215.555908,876.386353 1215.759155,908.674683 
	C1215.793457,914.118652 1213.023315,914.395142 1208.930176,914.373840 
	C1190.289185,914.276855 1171.647583,914.332520 1152.008301,914.333252 
z"/>
<path fill="#FFFFFF" opacity="1.000000" stroke="none" 
	d="
M1855.999756,846.339478 
	C1799.382935,846.339478 1743.766113,846.339478 1688.149292,846.339355 
	C1686.151123,846.339355 1684.120361,846.106384 1682.160889,846.381531 
	C1676.721313,847.145264 1675.392456,844.619141 1675.569092,839.594421 
	C1675.896851,830.280884 1675.731812,820.947083 1675.635498,811.623108 
	C1675.598022,807.995300 1676.674072,805.887146 1680.762573,806.298828 
	C1682.740356,806.497986 1684.755493,806.323914 1686.753662,806.323914 
	C1759.355225,806.323425 1831.956909,806.312866 1904.558472,806.333740 
	C1916.995728,806.337280 1915.590332,805.235291 1915.661865,817.678345 
	C1915.703979,825.004883 1915.346313,832.350708 1915.774658,839.652344 
	C1916.089722,845.024963 1914.058716,846.495544 1908.952026,846.426575 
	C1891.637451,846.192810 1874.317627,846.338684 1855.999756,846.339478 
z"/>
<path fill="#FFFFFF" opacity="1.000000" stroke="none" 
	d="
M2294.000000,1726.334229 
	C2272.694580,1726.334106 2252.389160,1726.334351 2232.083740,1726.333984 
	C2223.642578,1726.333740 2223.643066,1727.191162 2223.655273,1718.528320 
	C2223.687744,1695.559814 2223.622559,1672.591309 2223.692871,1649.623047 
	C2223.714600,1642.513184 2223.855957,1642.366821 2230.757324,1642.354980 
	C2263.379150,1642.299072 2296.001221,1642.291748 2328.623047,1642.361694 
	C2335.473633,1642.376343 2335.616455,1642.559204 2335.638184,1649.752319 
	C2335.708252,1673.053345 2335.507568,1696.356689 2335.780273,1719.654785 
	C2335.843018,1725.000977 2334.061768,1726.548706 2328.950928,1726.420654 
	C2317.640137,1726.136963 2306.317627,1726.333496 2294.000000,1726.334229 
z"/>
<path fill="#FFFFFF" opacity="1.000000" stroke="none" 
	d="
M1763.664673,1952.000244 
	C1763.663818,1967.312988 1763.518311,1981.628174 1763.746216,1995.937256 
	C1763.819092,2000.520020 1762.662598,2002.459473 1757.669067,2002.420776 
	C1732.040771,2002.221924 1706.409790,2002.269897 1680.780396,2002.386475 
	C1676.916748,2002.404053 1675.599976,2001.076416 1675.614136,1997.216553 
	C1675.724243,1967.259888 1675.715332,1937.302734 1675.629639,1907.345947 
	C1675.618286,1903.381348 1677.321411,1902.268555 1681.039795,1902.283081 
	C1706.669189,1902.382935 1732.299683,1902.401978 1757.928833,1902.269165 
	C1762.235596,1902.246826 1763.782349,1903.741699 1763.728271,1908.062622 
	C1763.549316,1922.373047 1763.663208,1936.687378 1763.664673,1952.000244 
z"/>
<path fill="#FFFFFF" opacity="1.000000" stroke="none" 
	d="
M1915.664551,1579.894531 
	C1915.664551,1583.875610 1915.690796,1586.871704 1915.659302,1589.867432 
	C1915.571899,1598.179810 1915.562622,1598.297852 1907.745361,1598.312622 
	C1879.450439,1598.366333 1851.155151,1598.365356 1822.860229,1598.310791 
	C1815.841553,1598.297241 1815.708008,1598.169067 1815.690918,1591.301636 
	C1815.629395,1566.668457 1815.620605,1542.034790 1815.696167,1517.401733 
	C1815.717285,1510.502686 1815.881470,1510.368042 1822.979004,1510.353516 
	C1851.273926,1510.295654 1879.569092,1510.295044 1907.864014,1510.352051 
	C1915.495972,1510.367432 1915.616089,1510.494385 1915.641113,1517.992188 
	C1915.708740,1538.297729 1915.664429,1558.603760 1915.664551,1579.894531 
z"/>
<path fill="#FFFFFF" opacity="1.000000" stroke="none" 
	d="
M2463.664795,1658.204468 
	C2463.664307,1679.148926 2463.709229,1699.123779 2463.639160,1719.098145 
	C2463.614502,1726.128418 2463.485840,1726.290161 2456.510986,1726.305542 
	C2426.549072,1726.371216 2396.586914,1726.269775 2366.625488,1726.399658 
	C2361.974609,1726.419800 2359.443848,1725.880981 2359.527100,1720.062378 
	C2359.865967,1696.430542 2359.615967,1672.790894 2359.700928,1649.154541 
	C2359.724854,1642.486694 2359.907959,1642.363770 2367.227295,1642.350830 
	C2396.856201,1642.298828 2426.485352,1642.294434 2456.114258,1642.354492 
	C2463.494141,1642.369385 2463.505371,1642.510132 2463.657227,1650.243652 
	C2463.703125,1652.573120 2463.664795,1654.904297 2463.664795,1658.204468 
z"/>
<path fill="#FFFFFF" opacity="1.000000" stroke="none" 
	d="
M2463.665527,1437.923584 
	C2463.038574,1445.106934 2466.402100,1452.943726 2462.096924,1457.104126 
	C2458.263428,1460.808960 2450.662598,1458.245361 2444.734863,1458.285645 
	C2425.428711,1458.416748 2406.121338,1458.377808 2386.814697,1458.310913 
	C2379.837891,1458.286743 2379.703613,1458.166504 2379.689941,1451.257568 
	C2379.633789,1422.630493 2379.625000,1394.003052 2379.695801,1365.376099 
	C2379.712891,1358.500732 2379.884033,1358.371582 2387.003418,1358.352539 
	C2410.304688,1358.289795 2433.606934,1358.451904 2456.906006,1358.236084 
	C2462.069824,1358.188354 2463.811523,1359.795776 2463.762451,1365.037476 
	C2463.538086,1389.002319 2463.664795,1412.970459 2463.665527,1437.923584 
z"/>
<path fill="#FFFFFF" opacity="1.000000" stroke="none" 
	d="
M1319.999146,1510.327759 
	C1331.982422,1510.329834 1342.968750,1510.468628 1353.948608,1510.265991 
	C1358.284668,1510.186035 1359.748901,1511.787964 1359.726440,1516.081177 
	C1359.593872,1541.376221 1359.481079,1566.674683 1359.799316,1591.966431 
	C1359.872314,1597.780029 1357.348145,1598.433105 1352.642944,1598.399902 
	C1331.342407,1598.249512 1310.040039,1598.335083 1288.738403,1598.334351 
	C1283.412964,1598.334229 1278.080078,1598.155762 1272.764526,1598.383423 
	C1268.870972,1598.550171 1267.526245,1597.045776 1267.612061,1593.199097 
	C1267.805176,1584.549683 1267.666260,1575.892822 1267.665527,1567.239014 
	C1267.664185,1551.262695 1267.636108,1535.286377 1267.676514,1519.310181 
	C1267.699097,1510.384033 1267.751099,1510.353516 1277.061768,1510.335083 
	C1291.041016,1510.307373 1305.020264,1510.327759 1319.999146,1510.327759 
z"/>
<path fill="#FFFFFF" opacity="1.000000" stroke="none" 
	d="
M2236.104004,1866.334839 
	C2233.453613,1866.334106 2231.758789,1866.128174 2230.130615,1866.370361 
	C2224.642334,1867.187012 2223.540771,1864.525635 2223.575439,1859.566895 
	C2223.766113,1832.273315 2223.628418,1804.977539 2223.691895,1777.682739 
	C2223.708496,1770.514893 2223.852783,1770.374390 2230.696289,1770.354736 
	C2253.996826,1770.287964 2277.297363,1770.278809 2300.597656,1770.360962 
	C2307.471191,1770.385132 2307.621094,1770.556519 2307.638428,1777.725464 
	C2307.704102,1805.020142 2307.534668,1832.316284 2307.776123,1859.609131 
	C2307.822754,1864.880737 2306.167480,1866.478149 2300.999512,1866.424927 
	C2279.698242,1866.205200 2258.393799,1866.334106 2236.104004,1866.334839 
z"/>
<path fill="#FFFFFF" opacity="1.000000" stroke="none" 
	d="
M1395.665161,1376.098877 
	C1396.130981,1369.877075 1393.435425,1363.360840 1396.910400,1359.702637 
	C1400.456909,1355.969360 1407.025269,1358.463989 1412.239990,1358.406372 
	C1430.545410,1358.204224 1448.854370,1358.293213 1467.161865,1358.343872 
	C1475.510376,1358.367065 1475.628784,1358.443359 1475.643677,1366.286621 
	C1475.697632,1394.580078 1475.699097,1422.873779 1475.639038,1451.167236 
	C1475.624268,1458.137329 1475.483154,1458.283325 1468.444702,1458.307007 
	C1446.475830,1458.380859 1424.506470,1458.375610 1402.537598,1458.308228 
	C1395.816895,1458.287598 1395.702271,1458.150757 1395.686401,1450.980835 
	C1395.631836,1426.348999 1395.665283,1401.716797 1395.665161,1376.098877 
z"/>
<path fill="#FFFFFF" opacity="1.000000" stroke="none" 
	d="
M1791.999756,914.343567 
	C1755.697021,914.343567 1720.394409,914.364685 1685.091675,914.330627 
	C1674.525269,914.320435 1675.738159,915.371277 1675.665894,904.546936 
	C1675.625854,898.552612 1675.714966,892.557434 1675.674683,886.563110 
	C1675.655518,883.704895 1676.825439,882.215698 1679.814819,882.324402 
	C1681.810181,882.397034 1683.810669,882.320312 1685.808960,882.320312 
	C1758.745605,882.319275 1831.682373,882.309143 1904.619019,882.329285 
	C1917.050659,882.332703 1915.577393,881.267578 1915.668213,893.732178 
	C1915.702271,898.394531 1915.328369,903.089539 1915.760742,907.711609 
	C1916.271851,913.174927 1913.924316,914.457703 1908.898804,914.425354 
	C1881.590210,914.249390 1854.280029,914.343018 1826.970337,914.343628 
	C1815.646851,914.343872 1804.323364,914.343567 1791.999756,914.343567 
z"/>
<path fill="#FFFFFF" opacity="1.000000" stroke="none" 
	d="
M1498.000244,1086.319336 
	C1540.630737,1086.319336 1582.261353,1086.318970 1623.891846,1086.320190 
	C1626.223145,1086.320312 1628.557861,1086.417114 1630.884766,1086.320068 
	C1634.215210,1086.181274 1635.808228,1087.574707 1635.671631,1091.011108 
	C1635.329590,1099.618530 1636.365356,1108.257446 1635.094238,1116.845703 
	C1627.458252,1120.185913 1619.436768,1118.202759 1611.641724,1118.226074 
	C1543.701294,1118.429199 1475.760010,1118.343506 1407.818970,1118.343018 
	C1405.487671,1118.343018 1403.143799,1118.182373 1400.827881,1118.370361 
	C1397.010254,1118.680542 1395.473389,1117.199097 1395.604370,1113.270386 
	C1395.826294,1106.616943 1395.570923,1099.949219 1395.682983,1093.290161 
	C1395.797363,1086.486572 1395.885010,1086.358154 1403.081543,1086.343262 
	C1430.724121,1086.286011 1458.366943,1086.319580 1486.009644,1086.319336 
	C1489.673096,1086.319336 1493.336670,1086.319336 1498.000244,1086.319336 
z"/>
<path fill="#FFFFFF" opacity="1.000000" stroke="none" 
	d="
M1124.933716,1903.092285 
	C1147.990845,1902.449219 1170.294312,1902.332642 1192.597534,1902.363403 
	C1199.470947,1902.372925 1199.621948,1902.556519 1199.638062,1909.727173 
	C1199.702148,1938.358032 1199.538208,1966.990356 1199.776733,1995.619263 
	C1199.820679,2000.908813 1198.140747,2002.477173 1192.987427,2002.424072 
	C1171.682983,2002.204956 1150.374634,2002.282471 1129.068359,2002.376953 
	C1125.515503,2002.392700 1123.560181,2001.704346 1123.613403,1997.503296 
	C1124.010376,1966.229370 1123.040161,1934.946655 1124.933716,1903.092285 
z"/>
<path fill="#FFFFFF" opacity="1.000000" stroke="none" 
	d="
M1123.679688,1861.776611 
	C1123.666260,1833.168091 1123.628418,1805.540405 1123.688599,1777.912842 
	C1123.704834,1770.466064 1123.841064,1770.367188 1131.462280,1770.346069 
	C1151.766846,1770.289917 1172.071777,1770.274902 1192.376099,1770.356201 
	C1199.450806,1770.384521 1199.617798,1770.534668 1199.636230,1777.501587 
	C1199.708374,1804.796143 1199.567261,1832.091675 1199.755127,1859.385132 
	C1199.788940,1864.311646 1198.716309,1866.506714 1193.225708,1866.439331 
	C1171.925781,1866.177734 1150.620605,1866.346924 1129.317383,1866.314331 
	C1126.773682,1866.310547 1123.624146,1867.006226 1123.679688,1861.776611 
z"/>
<path fill="#FFFFFF" opacity="1.000000" stroke="none" 
	d="
M1634.878906,1321.094116 
	C1608.335693,1322.975098 1582.377686,1321.949097 1556.431641,1322.396851 
	C1551.108521,1322.488525 1551.656128,1319.234985 1551.658325,1315.870361 
	C1551.672485,1294.897095 1551.664307,1273.923950 1551.663818,1252.950684 
	C1551.663696,1250.287476 1551.886963,1247.601685 1551.619385,1244.965698 
	C1551.089478,1239.746094 1553.190063,1238.138916 1558.420410,1238.216675 
	C1577.391968,1238.499023 1596.372925,1238.146606 1615.344604,1238.425781 
	C1621.854370,1238.521606 1630.098511,1235.353394 1634.440186,1240.076294 
	C1638.271606,1244.244263 1635.580200,1252.181030 1635.608276,1258.440186 
	C1635.700684,1279.077393 1635.541260,1299.715820 1634.878906,1321.094116 
z"/>
<path fill="#FFFFFF" opacity="1.000000" stroke="none" 
	d="
M1475.666748,1252.268311 
	C1475.666138,1273.874634 1475.710449,1294.512329 1475.640503,1315.149536 
	C1475.616821,1322.136353 1475.485352,1322.283936 1468.464478,1322.307861 
	C1446.495728,1322.382568 1424.526001,1322.238770 1402.558350,1322.410889 
	C1397.804199,1322.448120 1395.452026,1321.703613 1395.530151,1316.000122 
	C1395.853882,1292.371216 1395.770264,1268.734497 1395.581543,1245.102661 
	C1395.541504,1240.088379 1396.830322,1238.133545 1402.277466,1238.205688 
	C1424.575317,1238.500732 1446.880127,1238.412231 1469.180786,1238.260864 
	C1473.654785,1238.230469 1476.261475,1239.212646 1475.705566,1244.314087 
	C1475.454590,1246.616699 1475.665405,1248.969482 1475.666748,1252.268311 
z"/>
<path fill="#FFFFFF" opacity="1.000000" stroke="none" 
	d="
M1283.663696,1670.015381 
	C1283.670288,1661.697754 1283.734985,1654.375854 1283.656860,1647.055298 
	C1283.621826,1643.769165 1284.869751,1642.286987 1288.327271,1642.300171 
	C1310.624023,1642.385254 1332.921265,1642.377930 1355.218018,1642.327026 
	C1358.804688,1642.318848 1359.681641,1644.217896 1359.676514,1647.349243 
	C1359.636108,1671.975830 1359.584351,1696.602783 1359.726807,1721.228638 
	C1359.750366,1725.292480 1358.017822,1726.372070 1354.381348,1726.360962 
	C1332.417236,1726.293945 1310.452393,1726.245117 1288.489014,1726.394165 
	C1284.286987,1726.422607 1283.598755,1724.477173 1283.621216,1720.930176 
	C1283.726440,1704.291138 1283.665405,1687.651123 1283.663696,1670.015381 
z"/>
<path fill="#FFFFFF" opacity="1.000000" stroke="none" 
	d="
M1550.000000,1186.339355 
	C1536.018066,1186.338501 1523.034058,1186.197021 1510.055908,1186.414795 
	C1505.626587,1186.489014 1503.392212,1185.715454 1503.549683,1180.498779 
	C1503.911011,1168.526489 1503.820679,1156.532837 1503.586426,1144.554321 
	C1503.494873,1139.876587 1504.913818,1138.205688 1509.822021,1138.227417 
	C1549.765015,1138.403809 1589.709595,1138.399414 1629.652832,1138.239136 
	C1634.689453,1138.218994 1635.826538,1140.249268 1635.740723,1144.777710 
	C1635.520264,1156.423828 1635.391357,1168.086304 1635.789062,1179.723022 
	C1635.975830,1185.185547 1633.902466,1186.455444 1628.890015,1186.420898 
	C1602.927734,1186.242188 1576.963501,1186.338745 1550.000000,1186.339355 
z"/>
<path fill="#FFFFFF" opacity="1.000000" stroke="none" 
	d="
M1675.663696,1559.999146 
	C1675.664429,1545.022339 1675.829834,1531.042358 1675.578613,1517.069946 
	C1675.487671,1512.008789 1676.910278,1510.121216 1682.308716,1510.207520 
	C1701.605225,1510.516113 1720.910034,1510.277100 1740.211182,1510.353638 
	C1747.436523,1510.382202 1747.612305,1510.516846 1747.633911,1517.333740 
	C1747.713013,1542.292358 1747.541748,1567.252319 1747.767822,1592.209106 
	C1747.812744,1597.172363 1746.022705,1598.446899 1741.403320,1598.406738 
	C1721.437744,1598.233154 1701.467285,1598.163940 1681.504272,1598.447998 
	C1676.304077,1598.522095 1675.484131,1596.382202 1675.588379,1591.946167 
	C1675.830933,1581.635620 1675.664551,1571.315308 1675.663696,1559.999146 
z"/>
<path fill="#FFFFFF" opacity="1.000000" stroke="none" 
	d="
M1855.660645,1833.996338 
	C1855.661255,1814.361084 1855.791138,1795.723022 1855.577393,1777.088989 
	C1855.519653,1772.060181 1856.848389,1770.078125 1862.285156,1770.202759 
	C1877.585693,1770.553711 1892.899780,1770.265991 1908.207886,1770.350098 
	C1915.439209,1770.389771 1915.618164,1770.513550 1915.636841,1777.325684 
	C1915.712158,1804.947388 1915.557983,1832.570312 1915.768433,1860.190674 
	C1915.805908,1865.120117 1914.079102,1866.470337 1909.426270,1866.412109 
	C1893.454712,1866.212036 1877.474976,1866.135132 1861.507202,1866.451050 
	C1856.310425,1866.553833 1855.445557,1864.397583 1855.586670,1859.952393 
	C1855.850586,1851.640991 1855.661377,1843.315063 1855.660645,1833.996338 
z"/>
<path fill="#FFFFFF" opacity="1.000000" stroke="none" 
	d="
M1715.956787,422.072144 
	C1749.926758,440.362396 1783.245117,458.301361 1816.542603,476.229065 
	C1815.450684,479.384216 1813.103027,478.269623 1811.427979,478.272491 
	C1768.766724,478.346008 1726.105469,478.348419 1683.444092,478.313904 
	C1675.811646,478.307739 1675.708130,478.207794 1675.689331,470.864014 
	C1675.634888,449.533478 1675.662964,428.202728 1675.689575,406.872070 
	C1675.691528,405.283966 1675.338013,403.587891 1677.029541,401.550720 
	C1690.127808,407.344360 1702.525635,414.911652 1715.956787,422.072144 
z"/>
<path fill="#FFFFFF" opacity="1.000000" stroke="none" 
	d="
M2499.660889,1443.921265 
	C2499.661133,1417.302246 2499.623779,1391.677246 2499.684326,1366.052490 
	C2499.702148,1358.476562 2499.828369,1358.386963 2507.314453,1358.344116 
	C2519.960205,1358.271851 2532.609131,1358.468018 2545.251465,1358.252197 
	C2549.811768,1358.174316 2551.788086,1359.373657 2551.756836,1364.373901 
	C2551.572510,1393.658203 2551.558594,1422.945190 2551.771729,1452.229248 
	C2551.807861,1457.218750 2549.983887,1458.485352 2545.387695,1458.408691 
	C2532.745117,1458.197998 2520.096680,1458.380737 2507.450928,1458.322876 
	C2499.835205,1458.288086 2499.825439,1458.217163 2499.667725,1450.905518 
	C2499.624756,1448.909668 2499.661133,1446.912109 2499.660889,1443.921265 
z"/>
<path fill="#FFFFFF" opacity="1.000000" stroke="none" 
	d="
M2283.669922,1299.946289 
	C2283.126953,1307.803589 2286.590820,1316.523560 2282.014648,1321.051880 
	C2277.863037,1325.160278 2269.326416,1322.167114 2262.732178,1322.283325 
	C2251.421875,1322.483032 2240.103271,1322.221313 2228.791992,1322.392578 
	C2224.943848,1322.450806 2223.588867,1321.114990 2223.608154,1317.237793 
	C2223.728760,1292.946533 2223.774658,1268.653442 2223.575439,1244.363159 
	C2223.535156,1239.429077 2225.367676,1238.170288 2230.009766,1238.238403 
	C2245.646484,1238.468262 2261.291504,1238.496826 2276.927002,1238.229980 
	C2282.114746,1238.141479 2283.841064,1239.827637 2283.766846,1245.048218 
	C2283.510742,1263.013916 2283.669189,1280.985474 2283.669922,1299.946289 
z"/>
<path fill="#FFFFFF" opacity="1.000000" stroke="none" 
	d="
M1955.668579,570.206238 
	C1955.668579,563.924438 1955.668579,558.609131 1955.668579,551.407593 
	C1998.936523,574.731750 2041.067017,597.442749 2083.256104,620.185242 
	C2081.622559,623.189148 2079.420410,622.281616 2077.669434,622.284424 
	C2039.687988,622.345703 2001.706543,622.349915 1963.725098,622.316162 
	C1955.772949,622.309143 1955.710205,622.220154 1955.682495,614.151733 
	C1955.633179,599.825562 1955.668701,585.499084 1955.668579,570.206238 
z"/>
<path fill="#FFFFFF" opacity="1.000000" stroke="none" 
	d="
M2517.473877,854.453491 
	C2553.628418,873.979187 2589.116455,893.171570 2624.623291,912.374023 
	C2623.496338,915.091736 2621.582031,914.283936 2620.160645,914.286072 
	C2582.584717,914.341797 2545.008545,914.351135 2507.432617,914.314941 
	C2499.811523,914.307617 2499.709229,914.208984 2499.688232,906.886169 
	C2499.631104,886.949829 2499.668457,867.013184 2499.668457,846.484253 
	C2506.682129,847.038757 2511.105713,852.095337 2517.473877,854.453491 
z"/>
<path fill="#FFFFFF" opacity="1.000000" stroke="none" 
	d="
M2234.400635,766.632202 
	C2242.831543,751.443115 2251.175293,737.072510 2258.886719,722.370300 
	C2261.503418,717.381775 2263.874512,717.441345 2268.194336,719.797485 
	C2301.707031,738.076050 2335.306152,756.196655 2369.007568,774.436096 
	C2367.549805,774.986023 2369.204834,774.305969 2368.589355,775.488342 
	C2368.468262,775.721375 2368.181641,776.030579 2367.970459,776.031128 
	C2323.362061,776.145386 2278.753662,776.239563 2234.145264,776.301331 
	C2232.923584,776.302979 2231.504150,776.594910 2230.441406,774.985779 
	C2230.158203,771.911316 2233.141113,770.061523 2234.400635,766.632202 
z"/>
<path fill="#FFFFFF" opacity="1.000000" stroke="none" 
	d="
M1445.985596,1138.319336 
	C1454.635132,1138.321411 1462.292358,1138.488281 1469.937988,1138.261108 
	C1474.251831,1138.132935 1475.805054,1139.736328 1475.736938,1144.054443 
	C1475.543213,1156.361816 1475.576172,1168.675293 1475.720703,1180.984009 
	C1475.764526,1184.718994 1474.587402,1186.396118 1470.639648,1186.380005 
	C1447.350220,1186.284546 1424.059570,1186.272217 1400.770386,1186.395630 
	C1396.907837,1186.416016 1395.550659,1185.085449 1395.603027,1181.224731 
	C1395.770020,1168.916626 1395.853638,1156.600342 1395.568970,1144.296509 
	C1395.452759,1139.276245 1397.511963,1138.167847 1402.069702,1138.239014 
	C1416.372925,1138.462402 1430.681763,1138.320068 1445.985596,1138.319336 
z"/>
<path fill="#FFFFFF" opacity="1.000000" stroke="none" 
	d="
M2575.644531,1396.001221 
	C2575.646729,1384.683960 2575.774658,1374.364014 2575.589355,1364.049927 
	C2575.513916,1359.840210 2576.885742,1357.837402 2581.298584,1358.290649 
	C2588.466797,1359.026733 2597.406250,1355.264526 2602.375488,1360.086426 
	C2606.564209,1364.150879 2603.580322,1372.760254 2603.623779,1379.342773 
	C2603.781738,1403.305176 2603.725586,1427.269165 2603.659424,1451.232300 
	C2603.640137,1458.161743 2603.500977,1458.198364 2596.416016,1458.340454 
	C2592.423584,1458.420654 2588.428467,1458.361328 2584.434570,1458.354370 
	C2575.098145,1458.338013 2575.643799,1459.118286 2575.644531,1449.919922 
	C2575.645752,1432.280273 2575.644775,1414.640503 2575.644531,1396.001221 
z"/>
<path fill="#FFFFFF" opacity="1.000000" stroke="none" 
	d="
M1419.686035,1967.996094 
	C1419.683472,1978.314209 1419.574585,1987.635132 1419.731079,1996.951416 
	C1419.793091,2000.645996 1418.632812,2002.127075 1414.698853,2002.440430 
	C1395.634888,2003.958984 1395.644287,2004.076782 1395.644287,1985.208618 
	C1395.644287,1960.579712 1395.622437,1935.950928 1395.656128,1911.322021 
	C1395.668213,1902.415039 1395.729004,1902.415283 1404.009888,1902.307739 
	C1419.685913,1902.104004 1419.686035,1902.103760 1419.686035,1918.072021 
	C1419.686157,1934.380371 1419.686035,1950.688599 1419.686035,1967.996094 
z"/>
<path fill="#FFFFFF" opacity="1.000000" stroke="none" 
	d="
M1183.971313,2071.921875 
	C1179.316895,2082.980957 1174.880981,2093.307617 1169.618530,2105.558594 
	C1155.299438,2084.104248 1141.887939,2064.009766 1127.728394,2042.794434 
	C1151.205566,2042.794434 1173.010010,2042.794434 1196.064941,2042.794434 
	C1192.024658,2052.455566 1188.107178,2061.822510 1183.971313,2071.921875 
z"/>
<path fill="#FFFFFF" opacity="1.000000" stroke="none" 
	d="
M1527.686035,1250.349365 
	C1527.685547,1272.609863 1527.729248,1293.914307 1527.659424,1315.218506 
	C1527.636719,1322.161133 1527.501099,1322.160400 1520.428711,1322.354614 
	C1503.644287,1322.815308 1503.644165,1322.815552 1503.644287,1305.935791 
	C1503.644409,1285.962891 1503.599121,1265.989868 1503.668213,1246.017212 
	C1503.694336,1238.456055 1503.814331,1238.450562 1511.320435,1238.312134 
	C1512.984253,1238.281372 1514.649292,1238.296509 1516.313599,1238.308960 
	C1528.835815,1238.402100 1527.629761,1237.057861 1527.686035,1250.349365 
z"/>
<path fill="#FFFFFF" opacity="1.000000" stroke="none" 
	d="
M1915.686035,1274.003174 
	C1915.685181,1288.644775 1915.539795,1302.289673 1915.765015,1315.928467 
	C1915.840088,1320.472656 1914.713989,1322.295410 1909.724243,1322.481689 
	C1891.636719,1323.157349 1891.644165,1323.359619 1891.644287,1305.243164 
	C1891.644409,1285.611206 1891.604614,1265.979248 1891.664429,1246.347412 
	C1891.688354,1238.482178 1891.788330,1238.482422 1898.984253,1238.308105 
	C1915.686035,1237.903564 1915.686035,1237.903564 1915.686035,1255.035889 
	C1915.686035,1261.025269 1915.686035,1267.014771 1915.686035,1274.003174 
z"/>
<path fill="#FFFFFF" opacity="1.000000" stroke="none" 
	d="
M1791.691406,1581.860596 
	C1791.691406,1583.504517 1791.691406,1584.170410 1791.691284,1584.836182 
	C1791.688110,1599.340210 1791.695068,1599.205566 1776.834351,1598.448120 
	C1773.090820,1598.257202 1771.566528,1597.284058 1771.585327,1593.328735 
	C1771.708618,1567.363281 1771.690063,1541.396851 1771.602661,1515.431152 
	C1771.589722,1511.581909 1773.089478,1510.429565 1776.891113,1510.211914 
	C1791.698486,1509.364014 1791.690796,1509.221802 1791.691284,1523.956909 
	C1791.691772,1542.932007 1791.691406,1561.907227 1791.691406,1581.860596 
z"/>
<path fill="#FFFFFF" opacity="1.000000" stroke="none" 
	d="
M2185.168457,1238.541504 
	C2188.292480,1240.459717 2187.661865,1242.948853 2187.665771,1245.194214 
	C2187.705322,1268.509888 2187.731201,1291.825806 2187.665527,1315.141235 
	C2187.645752,1322.160034 2187.508301,1322.368774 2180.508545,1322.317383 
	C2164.954346,1322.203369 2167.808838,1324.174072 2167.686279,1310.004028 
	C2167.504639,1289.021484 2167.610840,1268.036011 2167.653320,1247.051880 
	C2167.670654,1238.388184 2167.739746,1238.377686 2176.274658,1238.308350 
	C2178.938965,1238.286743 2181.603516,1238.339233 2185.168457,1238.541504 
z"/>
<path fill="#FFFFFF" opacity="1.000000" stroke="none" 
	d="
M2789.229980,1273.163574 
	C2785.114258,1280.273682 2781.370605,1286.746582 2777.626709,1293.219482 
	C2776.964111,1293.130615 2776.301758,1293.041626 2775.639160,1292.952759 
	C2775.639160,1289.514160 2775.638916,1286.075684 2775.639160,1282.637207 
	C2775.639404,1270.340820 2775.575928,1258.044067 2775.664307,1245.748291 
	C2775.716309,1238.497559 2775.823486,1238.409668 2782.565918,1238.326660 
	C2790.534668,1238.228516 2798.505615,1238.303589 2807.781982,1238.303589 
	C2802.684082,1250.803833 2795.067871,1261.130737 2789.229980,1273.163574 
z"/>
<path fill="#FFFFFF" opacity="1.000000" stroke="none" 
	d="
M1349.078613,685.030396 
	C1351.966064,679.902649 1354.558472,675.458374 1359.089600,670.277344 
	C1359.089600,685.077515 1359.089600,698.236145 1359.089600,712.362000 
	C1351.580566,709.348328 1344.836914,706.399414 1338.414307,701.656860 
	C1341.997314,696.054077 1345.330933,690.841370 1349.078613,685.030396 
z"/>
<path fill="#FFFFFF" opacity="1.000000" stroke="none" 
	d="
M1304.186523,685.739868 
	C1294.620972,681.124268 1285.781128,676.699829 1276.941284,672.275330 
	C1276.984131,671.628540 1277.026855,670.981750 1277.069580,670.334900 
	C1284.256104,670.147644 1291.466919,670.274841 1298.663574,670.251465 
	C1305.935181,670.227844 1313.206787,670.246216 1321.140625,670.246216 
	C1319.489624,676.501831 1315.684082,681.029724 1312.622925,685.932922 
	C1310.072632,690.017761 1307.483765,686.502808 1304.186523,685.739868 
z"/>
</svg>